<?xml version="1.0" encoding="UTF-8" standalone="no"?>
<svg
   id="bLogo"
   class="logo"
   viewBox="0 0 154 28"
   aria-label="Bing"
   version="1.1"
   sodipodi:docname="microsoft.svg"
   inkscape:version="1.2 (dc2aedaf03, 2022-05-15)"
   xmlns:inkscape="http://www.inkscape.org/namespaces/inkscape"
   xmlns:sodipodi="http://sodipodi.sourceforge.net/DTD/sodipodi-0.dtd"
   xmlns:xlink="http://www.w3.org/1999/xlink"
   xmlns="http://www.w3.org/2000/svg"
   xmlns:svg="http://www.w3.org/2000/svg">
  <defs
     id="defs19">
    <linearGradient
       inkscape:collect="always"
       id="linearGradient1835">
      <stop
         style="stop-color:#e4d644;stop-opacity:1;"
         offset="0"
         id="stop1831" />
      <stop
         style="stop-color:#ef4537;stop-opacity:1;"
         offset="1"
         id="stop1833" />
    </linearGradient>
    <linearGradient
       inkscape:collect="always"
       xlink:href="#linearGradient1835"
       id="linearGradient1837"
       x1="31.039062"
       y1="13.853966"
       x2="154"
       y2="20.106102"
       gradientUnits="userSpaceOnUse"
       gradientTransform="translate(0,2.1460338)" />
  </defs>
  <sodipodi:namedview
     id="namedview17"
     pagecolor="#505050"
     bordercolor="#eeeeee"
     borderopacity="1"
     inkscape:showpageshadow="0"
     inkscape:pageopacity="0"
     inkscape:pagecheckerboard="0"
     inkscape:deskcolor="#505050"
     showgrid="false"
     inkscape:zoom="4.5584416"
     inkscape:cx="66.141026"
     inkscape:cy="15.027066"
     inkscape:window-width="1920"
     inkscape:window-height="991"
     inkscape:window-x="-9"
     inkscape:window-y="-9"
     inkscape:window-maximized="1"
     inkscape:current-layer="bLogo" />
  <g
     id="g8524"
     transform="translate(0,2.06)">
    <path
       class="top_l"
       d="M 11.35,0 H 0 v 11.35 h 11.35 z"
       id="path2"
       style="fill:#f26522;fill-opacity:1" />
    <path
       class="top_r"
       d="M 23.88,0 H 12.53 v 11.35 h 11.35 z"
       id="path4"
       style="fill:#8dc63f;fill-opacity:1" />
    <path
       class="bom_l"
       d="M 11.35,12.53 H 0 v 11.35 h 11.35 z"
       id="path6"
       style="fill:#00aeef;fill-opacity:1" />
    <path
       class="bom_r"
       d="M 23.88,12.53 H 12.53 v 11.35 h 11.35 z"
       id="path8"
       style="fill:#ffc20e;fill-opacity:1" />
  </g>
  <path
     id="path12"
     style="fill:url(#linearGradient1837);fill-opacity:1;fill-rule:nonzero"
     class="ms_text"
     d="m 104.82031,5.8569713 a 3.56,3.56 0 0 0 -3.75,3.6894531 v 1.4296876 h -1.720701 v 1.980469 h 1.720701 v 8.298828 h 2.44922 v -8.298828 h 3.59961 0.0117 v 5.279297 c 0,1.099999 0.25977,1.910938 0.75976,2.460937 0.51,0.54 1.27907,0.798828 2.28907,0.798828 0.36,0 0.70054,-0.02961 1.06054,-0.09961 0.36,-0.07 0.60977,-0.150234 0.75977,-0.240234 v -2 a 2.35,2.35 0 0 1 -1.01953,0.339843 c -0.49,0 -0.85008,-0.128672 -1.08008,-0.388671 -0.23,-0.26 -0.34961,-0.711564 -0.34961,-1.351563 V 12.956581 H 112 v -1.970703 h -2.46094 V 7.9350963 l -2.41992,0.7402344 v 2.3105473 h -3.59961 V 9.7358776 c 0,-0.6199994 0.13039,-1.080391 0.40039,-1.4003907 0.28,-0.3099997 0.66969,-0.46875 1.17969,-0.46875 a 2.42,2.42 0 0 1 1.09961,0.2695313 V 6.0464244 c -0.17,-0.06 -0.36961,-0.110625 -0.59961,-0.140625 -0.22,-0.03 -0.4793,-0.048828 -0.7793,-0.048828 z m 25.16016,0.6796875 c -0.38,0 -0.7007,0.1191409 -0.9707,0.3691406 -0.27,0.2499998 -0.40039,0.5594535 -0.40039,0.9394532 0,0.3799996 0.13039,0.6916408 0.40039,0.9316406 0.26,0.2399997 0.59093,0.3691406 0.96093,0.3691406 0.39,0 0.72024,-0.1308596 0.99024,-0.3808594 0.27,-0.2599997 0.39844,-0.5599222 0.39844,-0.9199218 0,-0.3699997 -0.12844,-0.6894534 -0.39844,-0.9394532 -0.27,-0.2499997 -0.60047,-0.3691406 -0.98047,-0.3691406 z m -79.880861,0.070312 c -0.399999,0 -0.739297,0.1284378 -1.029297,0.3984375 -0.287555,0.2677245 -0.436947,0.6043746 -0.439453,1 0,0.00201 -7e-6,0.00385 0,0.00586 -3e-6,0.00135 0,0.00256 0,0.00391 0.0024,0.3856172 0.142185,0.7127938 0.429688,0.9804688 0.28,0.2699997 0.629063,0.4101562 1.039062,0.4101562 0.41,0 0.770782,-0.1403909 1.050782,-0.4003906 0.289999,-0.2699997 0.429687,-0.6000004 0.429687,-1 A 1.44,1.44 0 0 0 50.099609,6.6069708 Z M 31.039062,6.915565 v 14.330078 h 2.300782 V 10.015174 h 0.0293 l 4.570312,11.230469 h 1.650391 l 4.429684,-11.230469 h 0.05078 V 21.245643 H 46.55078 V 6.915565 h -3.419922 l -4.351562,10.621094 h -0.05859 L 34.609375,6.915565 Z M 117.5,7.2163463 V 21.386268 h 4.55078 c 1.46,0 2.66914,-0.39086 3.61914,-1.130859 0.95,-0.739999 1.42969,-1.729454 1.42969,-2.939453 0,-0.969999 -0.28891,-1.769141 -0.87891,-2.369141 -0.58,-0.619999 -1.35008,-0.979844 -2.33008,-1.089843 v -0.04102 a 3.68,3.68 0 0 0 1.88868,-1.259766 c 0.45,-0.599999 0.68164,-1.29961 0.68164,-2.099609 0,-0.9599994 -0.40118,-1.7398447 -1.20117,-2.3398441 C 124.45977,7.5167375 123.37,7.2163463 122,7.2163463 Z m 2.34961,1.890625 h 1.71094 c 1.62,0 2.42968,0.5983606 2.42968,1.8183597 0,0.699999 -0.23117,1.240625 -0.70117,1.640625 -0.46,0.37 -1.09992,0.570312 -1.91992,0.570312 h -1.51953 z M 84.619141,10.706581 c -1.169999,0 -2.119142,0.300391 -2.869141,0.90039 -0.729999,0.59 -1.099609,1.359064 -1.099609,2.289063 0,0.719999 0.180547,1.299532 0.560547,1.769531 0.379999,0.47 1.008438,0.889766 1.898437,1.259766 0.749999,0.3 1.261016,0.570781 1.541016,0.800781 0.259999,0.23 0.40039,0.50961 0.40039,0.84961 0,0.359999 -0.130625,0.609531 -0.390625,0.769531 -0.259999,0.15 -0.660938,0.230469 -1.210937,0.230469 -0.41,-10e-7 -0.878907,-0.08953 -1.378907,-0.269532 -0.509999,-0.18 -0.979922,-0.430469 -1.419921,-0.730468 v 2.371093 a 7.25,7.25 0 0 0 2.730468,0.558594 c 1.259999,0 2.269767,-0.288907 3.009766,-0.878906 0.739999,-0.59 1.109375,-1.370079 1.109375,-2.330078 0,-0.69 -0.190079,-1.269766 -0.580078,-1.759766 -0.39,-0.48 -1.069298,-0.910782 -2.029297,-1.300781 -0.759999,-0.3 -1.240938,-0.540235 -1.460937,-0.740235 -0.23,-0.199999 -0.330079,-0.470312 -0.330079,-0.820312 h -0.0098 a 0.86,0.86 0 0 1 0.40039,-0.75 c 0.25,-0.17 0.610313,-0.269531 1.070313,-0.269531 a 3.74,3.74 0 0 1 1.269531,0.230468 c 0.42,0.16 0.799141,0.340547 1.119141,0.560547 v -2.300781 a 7.06,7.06 0 0 0 -2.330043,-0.439453 z m -26.06836,0.01953 c -1.769998,0 -3.141563,0.52961 -4.101562,1.59961 C 53.47922,13.39572 53,14.755801 53,16.4058 a 4.99,4.99 0 0 0 1.400391,3.660156 4.97,4.97 0 0 0 3.699218,1.429687 7.2,7.2 0 0 0 1.621094,-0.169921 c 0.48,-0.1 0.918829,-0.280001 1.298828,-0.5 v -2.240235 c -0.359999,0.27 -0.759219,0.490157 -1.199219,0.660156 -0.426284,0.158618 -0.822091,0.238864 -1.169921,0.240235 -0.969999,0 -1.740782,-0.279376 -2.300782,-0.859375 C 55.78961,18.046503 55.5,17.236814 55.5,16.196815 c 0,-1.049999 0.310626,-1.891719 0.890625,-2.511719 0.579999,-0.619999 1.348829,-0.929687 2.298828,-0.929687 a 3.32,3.32 0 0 1 1.201172,0.230469 5,5 0 0 1 1.138672,0.630859 V 11.30619 a 5.62,5.62 0 0 0 -2.478516,-0.580078 z m 15.839844,0.0098 c -1.699998,0 -3.040001,0.500235 -4,1.490234 -0.959999,0.989999 -1.441406,2.339064 -1.441406,4.039063 a 5.17,5.17 0 0 0 1.40039,3.830078 c 0.939999,0.929999 2.201018,1.40039 3.791016,1.40039 a 5.22,5.22 0 0 0 3.919922,-1.480468 C 79.020546,19.035176 79.5,17.706423 79.5,16.046425 c 0,-1.629999 -0.43961,-2.930861 -1.349609,-3.88086 -0.909999,-0.949999 -2.159768,-1.429687 -3.759766,-1.429687 z m 19.589844,0 a 5.3,5.3 0 0 0 -4,1.490234 c -0.959999,0.989999 -1.441407,2.339064 -1.441407,4.039063 a 5.17,5.17 0 0 0 1.400391,3.830078 c 0.939999,0.929999 2.200783,1.40039 3.800781,1.40039 a 5.22,5.22 0 0 0 3.910157,-1.480468 c 0.959999,-0.979999 1.439453,-2.308752 1.439453,-3.96875 0,-1.629999 -0.449611,-2.930861 -1.34961,-3.88086 -0.899999,-0.950003 -2.159767,-1.429691 -3.759765,-1.429691 z m -26.080078,0.06055 c -0.62,0 -1.14961,0.160469 -1.59961,0.480469 -0.439999,0.309999 -0.78,0.748593 -1,1.308593 h -0.04102 v -1.619145 h -2.419917 v 10.289063 h 2.419922 V 16.05619 c 0,-1.029999 0.221094,-1.800782 0.621093,-2.300781 0.4,-0.499999 0.900001,-0.759766 1.5,-0.759766 a 2.56,2.56 0 0 1 1.439453,0.400391 V 10.946815 A 2.54,2.54 0 0 0 67.910156,10.80619 Z m -19.019532,0.179683 v 10.269531 h 2.419922 V 10.976112 Z m 90.189451,0.05078 a 3.6,3.6 0 0 0 -3.28125,1.919922 H 135.75 v -1.681641 h -2.30078 V 21.386268 H 135.75 v -5.769531 a 2.9,2.9 0 0 1 0.67969,-1.970703 c 0.46,-0.529999 1.04023,-0.800781 1.74023,-0.800781 1.33,0 2,0.939845 2,2.839843 v 5.701172 h 2.29102 v -6.179687 c 0,-1.359999 -0.2911,-2.38961 -0.8711,-3.09961 -0.58,-0.719999 -1.41953,-1.080078 -2.51953,-1.080078 z m 9.43946,0 c -1.42,0 -2.51985,0.499532 -3.33985,1.519532 -0.82,1.019999 -1.2207,2.379611 -1.2207,4.099609 a 5.49,5.49 0 0 0 1.13086,3.630859 3.72,3.72 0 0 0 2.98047,1.339844 3.71,3.71 0 0 0 3.41992,-1.931641 h 0.0391 v 1.101563 c 0,2.369998 -1.20938,3.548828 -3.60937,3.548828 -0.99,0 -2.0504,-0.309219 -3.15039,-0.949219 v 2.09961 a 8.35,8.35 0 0 0 3.45117,0.660156 c 3.73999,0 5.59961,-1.860316 5.59961,-5.570312 l 0.01,-9.310548 h -2.30078 v 1.400391 h -0.0391 c -0.65,-1.089999 -1.64071,-1.638672 -2.9707,-1.638672 z m -19.68946,0.238281 v 10.121094 h 2.28907 l 0.01,-10.121094 z m -54.550779,1.511719 a 2.48,2.48 0 0 1 2,0.84961 c 0.48,0.559999 0.720703,1.400001 0.720703,2.5 0,1.109999 -0.241172,1.959532 -0.701172,2.519531 -0.459999,0.559999 -1.13,0.839844 -2,0.839844 -0.909999,0 -1.599844,-0.269845 -2.089843,-0.839844 -0.49,-0.569999 -0.728516,-1.390939 -0.728516,-2.460938 0,-1.089998 0.240235,-1.929297 0.740235,-2.529296 0.489999,-0.58 1.168594,-0.878907 2.058593,-0.878907 z m 19.59961,0 a 2.48,2.48 0 0 1 2,0.84961 c 0.469999,0.559999 0.720703,1.400001 0.720703,2.5 0,1.109999 -0.239219,1.959532 -0.699219,2.519531 -0.46,0.559999 -1.130001,0.839844 -2,0.839844 -0.919999,0 -1.611563,-0.269845 -2.101563,-0.839844 -0.489999,-0.569999 -0.728515,-1.390939 -0.728515,-2.460938 A 3.8,3.8 0 0 1 91.800781,13.6558 c 0.49,-0.58 1.178361,-0.878907 2.06836,-0.878907 z m 55.201169,0.08008 a 2.3,2.3 0 0 1 1.75977,0.759765 c 0.47,0.5 0.70898,1.10836 0.70898,1.818359 v 1.320313 c -0.002,0.895349 -0.24013,1.61355 -0.73828,2.191406 -0.49,0.56 -1.13164,0.84961 -1.93164,0.84961 -0.78,0 -1.39891,-0.290626 -1.87891,-0.890625 -0.46,-0.6 -0.70117,-1.390626 -0.70117,-2.390625 a 4.34,4.34 0 0 1 0.74024,-2.689453 c 0.49,-0.64 1.17101,-0.96875 2.04101,-0.96875 z m -29.2207,2.169921 h 1.70117 c 2.04,0 3.04883,0.729221 3.04883,2.199219 0,0.709999 -0.23875,1.269688 -0.71875,1.679688 -0.47,0.399999 -1.15125,0.599609 -2.03125,0.599609 h -2 z" />
</svg>
