<?xml version="1.0" encoding="UTF-8" standalone="no"?>
<svg
   width="100"
   height="33.912998"
   version="1.1"
   id="svg4"
   sodipodi:docname="baidu.svg"
   inkscape:version="1.3.2 (091e20e, 2023-11-25, custom)"
   xmlns:inkscape="http://www.inkscape.org/namespaces/inkscape"
   xmlns:sodipodi="http://sodipodi.sourceforge.net/DTD/sodipodi-0.dtd"
   xmlns="http://www.w3.org/2000/svg"
   xmlns:svg="http://www.w3.org/2000/svg">
  <defs
     id="defs4" />
  <sodipodi:namedview
     id="namedview4"
     pagecolor="#ffffff"
     bordercolor="#000000"
     borderopacity="0.25"
     inkscape:showpageshadow="2"
     inkscape:pageopacity="0.0"
     inkscape:pagecheckerboard="0"
     inkscape:deskcolor="#d1d1d1"
     inkscape:zoom="11.533333"
     inkscape:cx="60"
     inkscape:cy="29.956647"
     inkscape:window-width="1920"
     inkscape:window-height="991"
     inkscape:window-x="-9"
     inkscape:window-y="-9"
     inkscape:window-maximized="1"
     inkscape:current-layer="svg4" />
  <g
     id="g4"
     transform="matrix(0.90909091,0,0,0.90909091,-4.5454545,-6.0872727)">
    <path
       d="M 5,6.696 H 115 V 44 H 5 Z"
       fill="#ffffff"
       fill-opacity="0"
       id="path1" />
    <path
       d="m 48.177,26.634 c 3.717,-0.8 3.2,-5.246 3.1,-6.218 -0.183,-1.5 -1.945,-4.116 -4.335,-3.907 -3,0.268 -3.45,4.616 -3.45,4.616 -0.408,2.013 0.973,6.3 4.684,5.5 m 6.903,-7.455 c 2.052,0 3.7,-2.365 3.7,-5.286 0,-2.921 -1.66,-5.282 -3.7,-5.282 -2.04,0 -3.716,2.36 -3.716,5.282 0,2.922 1.662,5.286 3.716,5.286 m 8.846,0.348 c 2.747,0.36 4.507,-2.57 4.86,-4.8 0.36,-2.217 -1.415,-4.796 -3.355,-5.24 -1.95,-0.448 -4.382,2.672 -4.6,4.707 -0.267,2.5 0.353,4.97 3.097,5.323 m 10.878,3.73 c 0,-1.062 -0.88,-4.263 -4.153,-4.263 -3.28,0 -3.714,3.02 -3.714,5.155 0,2.037 0.17,4.878 4.244,4.8 4.074,-0.078 3.624,-4.613 3.624,-5.682 M 70.65,32.58 c 0,0 -4.246,-3.285 -6.725,-6.836 -3.365,-5.236 -8.14,-3.104 -9.736,-0.445 -1.6,2.666 -4.065,4.35 -4.42,4.796 -0.357,0.438 -5.128,3.016 -4.07,7.724 1.058,4.708 4.782,4.615 4.782,4.615 0,0 2.742,0.268 5.922,-0.443 a 12.62,12.62 0 0 1 5.928,0.174 c 0,0 7.433,2.493 9.465,-2.304 2.032,-4.797 -1.147,-7.28 -1.147,-7.28"
       fill="#2319dc"
       id="path2" />
    <path
       d="m 55.74,28 v 3.16 h -2.575 c 0,0 -2.573,0.213 -3.474,3.13 -0.314,1.947 0.277,3.094 0.38,3.34 0.103,0.246 0.936,1.67 3.024,2.087 h 4.83 V 28.034 Z m -0.04,9.8 h -1.946 c 0,0 -1.356,-0.07 -1.77,-1.632 -0.213,-0.692 0.032,-1.5 0.14,-1.805 0.098,-0.315 0.554,-1.042 1.492,-1.322 H 55.7 v 4.76 z m 3.4,-6.357 v 6.15 c 0,0 0.1,1.53 2.26,2.088 h 5.56 v -8.24 h -2.4 v 6.186 h -2.3 c 0,0 -0.732,-0.106 -0.87,-0.695 v -5.527 l -2.26,0.036 z"
       fill="#ffffff"
       id="path3" />
    <path
       d="M 93.42,27.405 V 24.812 H 76.34 l -0.022,2.63 h 7.343 l -0.7,1.574 H 76.716 V 42.03 H 91.56 c 1.55,0 1.413,-1.567 1.413,-1.567 V 29.017 H 86.72 l 0.55,-1.6 6.15,-0.001 z M 90.104,39.25 c 0,0 -0.18,0.432 -0.434,0.432 h -9.844 v -3.035 h 10.28 l -10e-4,2.603 z m -0.017,-5.1 H 79.825 v -2.846 h 10.262 z m 22.853,-9.27 h -6.702 v -1.313 h -3.143 v 1.248 H 95.407 V 42 h 2.766 V 27.03 h 14.767 z m -1.808,3.557 v -0.995 h -2.702 v 0.995 h -5.56 v -0.96 h -2.56 v 0.96 h -1.73 l 0.034,1.947 h 1.695 v 3.656 h 9.35 c 1.297,0 1.47,-1.37 1.47,-1.37 v -2.288 h 1.98 v -1.947 h -1.978 v 0.001 z m -2.702,3.276 c 0,0 -0.24,0.443 -0.55,0.443 h -5.04 v -1.8 h 5.587 v 1.368 z m -9.47,4.992 4.304,2.496 c -0.34,0.375 -1.8,0.85 -1.8,0.85 h -2.87 v 1.92 h 3.896 c 1.163,-0.238 3.314,-1.33 3.314,-1.33 0.9,0.818 2.602,1.158 2.602,1.158 h 4.44 V 39.885 H 109.5 c -0.902,-0.135 -1.712,-0.65 -1.712,-0.65 l 5.06,-2.906 V 34.756 H 98.962 l -0.001,1.95 z m 8.955,-0.032 -2.462,1.298 -2.256,-1.298 z m -69.58,-9.056 h 3.728 v -3.285 h -3.728 z m 0,14.315 h 3.728 V 29.048 H 38.335 Z M 32.273,29.06 24.319,29.04 v 2.7 h 6.975 c 0,0 1.66,0.4 1.66,1.463 v 0.954 h -6.312 c 0,0 -2.482,0.23 -3.28,3.194 -0.137,1.4 0.046,2.07 0.14,2.324 0.094,0.254 0.817,1.9 2.98,2.298 h 10.05 v -9.23 c 0,0 -0.48,-3.167 -4.26,-3.7 m 0.68,10.37 h -5.08 c -0.683,-0.275 -0.9,-0.73 -0.958,-0.845 -0.058,-0.115 -0.205,-0.52 -0.02,-0.932 0.4,-0.795 1.092,-0.98 1.092,-0.98 h 4.966 v 2.756 z m -10.4,-2 c 0.1,-3.137 -2.705,-4.222 -2.705,-4.222 2.382,-1.246 2.08,-4.387 2.08,-4.387 -0.258,-4.806 -6.13,-4.582 -6.13,-4.582 H 6.713 V 42.135 H 16.96 c 6.017,-0.024 5.584,-4.722 5.584,-4.722 m -5.8,1.392 v 0.008 H 10.606 V 34.95 h 6.108 l 0.207,0.042 c 0,0 1.162,0.212 1.583,1.258 0,0 0.244,0.982 -0.283,1.712 0,0 -0.387,0.674 -1.477,0.846 m 1.3,-8.305 c 0,0 -0.412,0.758 -1.507,0.922 h -5.932 v -3.707 h 5.907 c 0,0 1.284,-0.06 1.708,0.96 0,0 0.255,1.084 -0.176,1.825"
       fill="#e10601"
       id="path4" />
  </g>
</svg>
