<?xml version="1.0" encoding="UTF-8" standalone="no"?>
<svg
   width="120"
   height="66.200996"
   version="1.1"
   id="svg15"
   sodipodi:docname="duckduckgo.svg"
   inkscape:version="1.3.2 (091e20e, 2023-11-25, custom)"
   xmlns:inkscape="http://www.inkscape.org/namespaces/inkscape"
   xmlns:sodipodi="http://sodipodi.sourceforge.net/DTD/sodipodi-0.dtd"
   xmlns:xlink="http://www.w3.org/1999/xlink"
   xmlns="http://www.w3.org/2000/svg"
   xmlns:svg="http://www.w3.org/2000/svg">
  <defs
     id="defs15" />
  <sodipodi:namedview
     id="namedview15"
     pagecolor="#ffffff"
     bordercolor="#000000"
     borderopacity="0.25"
     inkscape:showpageshadow="2"
     inkscape:pageopacity="0.0"
     inkscape:pagecheckerboard="0"
     inkscape:deskcolor="#d1d1d1"
     inkscape:zoom="11.533333"
     inkscape:cx="60"
     inkscape:cy="36.893064"
     inkscape:window-width="1920"
     inkscape:window-height="991"
     inkscape:window-x="-9"
     inkscape:window-y="-9"
     inkscape:window-maximized="1"
     inkscape:current-layer="svg15" />
  <g
     transform="matrix(1.4183649,0,0,1.4183649,-25.105059,-9.3552998)"
     id="g15">
    <path
       d="M 17.7,53.08 V 42.92 h 3.68 c 3.505,0 5.1,2.574 5.1,4.968 0,2.583 -1.577,5.187 -5.1,5.187 z m 1.17,-1.17 h 2.51 c 2.715,0 3.93,-2.025 3.93,-4.033 0,-1.845 -1.23,-3.828 -3.93,-3.828 h -2.51 z m 12.247,1.287 c -1.88,0 -3.096,-1.295 -3.096,-3.3 v -3.944 h 1.097 v 3.93 c 0,1.444 0.84,2.306 2.247,2.306 1.32,-0.014 2.277,-1.027 2.277,-2.408 v -3.827 h 1.097 v 7.127 h -0.997 l -0.063,-1.24 -0.17,0.214 c -0.59,0.743 -1.396,1.128 -2.393,1.143 z m 8.973,0.015 c -1.858,0 -3.725,-1.144 -3.725,-3.696 0,-2.21 1.497,-3.695 3.725,-3.695 a 3.57,3.57 0 0 1 2.547,1.033 l -0.7,0.715 c -0.485,-0.453 -1.148,-0.7 -1.828,-0.7 -1.556,0 -2.643,1.093 -2.643,2.657 0,1.836 1.32,2.66 2.628,2.66 0.736,0 1.404,-0.263 1.888,-0.743 l 0.717,0.717 c -0.72,0.703 -1.602,1.06 -2.62,1.06 z M 50.11,53.08 H 48.718 L 45.235,49.597 V 53.08 H 44.152 V 42.93 h 1.083 v 6.135 l 3.045,-3.12 h 1.42 l -3.36,3.36 3.77,3.758 z m 1.35,0 V 42.92 h 3.68 c 3.505,0 5.102,2.574 5.102,4.968 0,2.583 -1.575,5.187 -5.102,5.187 z m 1.17,-1.17 h 2.51 c 2.715,0 3.93,-2.025 3.93,-4.033 0,-1.845 -1.23,-3.828 -3.93,-3.828 h -2.51 z m 12.247,1.287 c -1.88,0 -3.095,-1.295 -3.095,-3.3 v -3.944 h 1.097 v 3.93 c 0,1.444 0.84,2.306 2.246,2.306 1.32,-0.014 2.277,-1.027 2.277,-2.408 v -3.827 h 1.097 v 7.127 H 67.5 l -0.062,-1.24 -0.17,0.214 c -0.59,0.743 -1.396,1.128 -2.392,1.143 z m 8.975,0.015 c -1.858,0 -3.725,-1.144 -3.725,-3.696 0,-2.21 1.497,-3.695 3.725,-3.695 a 3.57,3.57 0 0 1 2.547,1.033 l -0.7,0.715 c -0.486,-0.453 -1.148,-0.7 -1.83,-0.7 -1.557,0 -2.642,1.093 -2.642,2.657 0,1.836 1.32,2.66 2.628,2.66 0.735,0 1.404,-0.263 1.888,-0.743 l 0.696,0.697 -0.036,0.04 0.02,0.02 c -0.714,0.677 -1.582,1.022 -2.583,1.022 z m 10.02,-0.132 h -1.4 l -3.484,-3.482 v 3.483 H 77.906 V 42.936 h 1.082 v 6.135 l 3.045,-3.12 h 1.42 L 80.1,49.3 l 3.768,3.758 z m 5.747,0.19 c -3.905,0 -5.29,-2.787 -5.29,-5.174 -0.008,-1.555 0.52,-2.942 1.48,-3.91 0.947,-0.952 2.26,-1.455 3.796,-1.455 1.377,-0.005 2.702,0.53 3.69,1.488 l -0.662,0.772 a 4.6,4.6 0 0 0 -3.027,-1.178 c -2.83,0 -4.12,2.22 -4.12,4.28 0,2.027 1.282,4.077 4.15,4.077 1.044,0 2.018,-0.357 2.813,-1.04 l 0.04,-0.03 v -2.503 h -3.192 v -1.024 h 4.243 v 3.983 c -1.096,1.156 -2.373,1.71 -3.923,1.71 z m 8.975,-0.06 c -2.142,0 -3.696,-1.548 -3.696,-3.68 0,-2.166 1.557,-3.74 3.696,-3.74 2.19,0 3.71,1.537 3.71,3.74 0,2.133 -1.56,3.68 -3.71,3.68 z m 0.014,-6.425 c -1.54,0 -2.612,1.13 -2.612,2.744 0,1.54 1.093,2.658 2.6,2.658 1.528,0 2.612,-1.093 2.626,-2.657 0,-1.59 -1.098,-2.745 -2.613,-2.745 z"
       fill="#4c4c4c"
       id="path1" />
    <g
       transform="matrix(0.260934,0,0,0.260934,26.775065,1.647222)"
       id="g14">
      <circle
         r="51.150002"
         cy="78.966003"
         cx="127.332"
         fill="#de5833"
         id="circle1" />
      <defs
         id="defs1">
        <path
           d="m 178.684,78.824 c 0,28.316 -23.035,51.354 -51.354,51.354 -28.313,0 -51.348,-23.04 -51.348,-51.354 0,-28.314 23.036,-51.35 51.348,-51.35 28.318,0 51.354,23.036 51.354,51.35 z"
           id="A" />
      </defs>
      <clipPath
         id="B">
        <use
           xlink:href="#A"
           id="use1" />
      </clipPath>
      <g
         clip-path="url(#B)"
         id="g10">
        <path
           d="m 148.293,155.158 c -1.8,-8.285 -12.262,-27.04 -16.23,-34.97 -3.968,-7.93 -7.938,-19.1 -6.13,-26.322 0.328,-1.312 -3.436,-11.308 -2.354,-12.015 8.416,-5.5 10.632,0.6 14.002,-1.862 1.734,-1.273 4.1,1.047 4.7,-1.06 2.158,-7.567 -3.006,-20.76 -8.77,-26.526 -1.885,-1.88 -4.77,-3.06 -8.03,-3.687 -1.254,-1.713 -3.275,-3.36 -6.138,-4.88 -3.188,-1.697 -10.12,-3.938 -13.717,-4.535 -2.492,-0.4 -3.055,0.287 -4.12,0.46 0.992,0.088 5.7,2.414 6.615,2.55 -0.916,0.62 -3.607,-0.028 -5.324,0.742 -0.865,0.392 -1.512,1.877 -1.506,2.58 4.9,-0.496 12.574,-0.016 17.1,2 -3.602,0.4 -9.08,0.867 -11.436,2.105 -6.848,3.608 -9.873,12.035 -8.07,22.133 1.804,10.075 9.738,46.85 12.262,59.13 2.525,12.264 -5.408,20.2 -10.455,22.354 l 5.408,0.363 -1.8,3.967 c 6.484,0.72 13.695,-1.44 13.695,-1.44 -1.438,3.965 -11.176,5.412 -11.176,5.412 0,0 4.7,1.438 12.258,-1.447 l 12.263,-4.688 3.604,9.373 6.854,-6.847 2.885,7.2 c 0.014,-10e-4 5.424,-1.808 3.62,-10.103 z"
           fill="#d5d7d8"
           id="path2" />
        <path
           d="m 150.47,153.477 c -1.795,-8.3 -12.256,-27.043 -16.228,-34.98 -3.972,-7.937 -7.935,-19.112 -6.13,-26.32 0.335,-1.3 0.34,-6.668 1.43,-7.38 8.4,-5.494 7.812,-0.184 11.187,-2.645 1.74,-1.27 3.133,-2.806 3.738,-4.912 2.164,-7.572 -3.006,-20.76 -8.773,-26.53 -1.88,-1.88 -4.768,-3.062 -8.023,-3.686 -1.252,-1.718 -3.27,-3.36 -6.13,-4.882 -5.4,-2.862 -12.074,-4.006 -18.266,-2.883 1,0.1 3.256,2.138 4.168,2.273 -1.38,0.936 -5.053,0.815 -5.03,2.896 4.916,-0.492 10.303,0.285 14.834,2.297 -3.602,0.4 -6.955,1.3 -9.3,2.543 -6.854,3.603 -8.656,10.812 -6.854,20.914 1.807,10.097 9.742,46.873 12.256,59.126 2.527,12.26 -5.402,20.188 -10.45,22.354 l 5.408,0.36 -1.8,3.973 c 6.484,0.72 13.695,-1.44 13.695,-1.44 -1.438,3.974 -11.176,5.406 -11.176,5.406 0,0 4.686,1.44 12.258,-1.445 l 12.27,-4.688 3.604,9.373 6.852,-6.85 2.9,7.215 c -0.016,0.007 5.388,-1.797 3.58,-10.088 z"
           fill="#ffffff"
           id="path3" />
        <path
           d="m 109.02,70.69 c 0,-2.093 1.693,-3.787 3.79,-3.787 2.1,0 3.785,1.694 3.785,3.787 0,2.093 -1.695,3.786 -3.785,3.786 -2.096,0.001 -3.79,-1.692 -3.79,-3.786 z"
           fill="#2d4f8e"
           id="path4" />
        <path
           d="m 113.507,69.43 a 0.98,0.98 0 0 1 0.98,-0.983 c 0.543,0 0.984,0.438 0.984,0.983 0,0.545 -0.44,0.984 -0.984,0.984 -0.538,0.001 -0.98,-0.44 -0.98,-0.984 z"
           fill="#ffffff"
           id="path5" />
        <path
           d="m 134.867,68.445 c 0,-1.793 1.46,-3.25 3.252,-3.25 1.8,0 3.256,1.457 3.256,3.25 0,1.8 -1.455,3.258 -3.256,3.258 a 3.26,3.26 0 0 1 -3.252,-3.258 z"
           fill="#2d4f8e"
           id="path6" />
        <path
           d="m 138.725,67.363 c 0,-0.463 0.38,-0.843 0.838,-0.843 a 0.84,0.84 0 0 1 0.846,0.843 c 0,0.47 -0.367,0.842 -0.846,0.842 a 0.84,0.84 0 0 1 -0.838,-0.842 z"
           fill="#ffffff"
           id="path7" />
        <linearGradient
           y2="60.979"
           x2="113.887"
           y1="60.979"
           x1="105.318"
           gradientUnits="userSpaceOnUse"
           id="C">
          <stop
             offset=".006"
             stop-color="#6176b9"
             id="stop7" />
          <stop
             offset=".691"
             stop-color="#394a9f"
             id="stop8" />
        </linearGradient>
        <path
           d="m 113.886,59.718 c 0,0 -2.854,-1.3 -5.63,0.453 -2.776,1.753 -2.668,3.523 -2.668,3.523 0,0 -1.473,-3.283 2.453,-4.892 3.926,-1.609 5.844,0.916 5.844,0.916 z"
           fill="url(#C)"
           id="path8"
           style="fill:url(#C)" />
        <linearGradient
           y2="58.370998"
           x2="140.078"
           y1="58.370998"
           x1="132.27299"
           gradientUnits="userSpaceOnUse"
           id="D">
          <stop
             offset=".006"
             stop-color="#6176b9"
             id="stop9" />
          <stop
             offset=".691"
             stop-color="#394a9f"
             id="stop10" />
        </linearGradient>
        <path
           d="m 140.078,59.458 c 0,0 -2.05,-1.172 -3.643,-1.152 -3.27,0.043 -4.162,1.488 -4.162,1.488 0,0 0.55,-3.445 4.732,-2.754 2.268,0.377 3.073,2.418 3.073,2.418 z"
           fill="url(#D)"
           id="path10"
           style="fill:url(#D)" />
      </g>
      <path
         d="m 124.4,85.295 c 0.38,-2.3 6.3,-6.625 10.5,-6.887 4.2,-0.265 5.5,-0.205 9,-1.043 3.5,-0.838 12.535,-3.088 15.033,-4.242 2.504,-1.156 13.104,0.572 5.63,4.738 -3.232,1.8 -11.943,5.13 -18.172,6.987 -6.22,1.86 -10,-1.776 -12.06,1.28 -1.646,2.432 -0.334,5.762 7.1,6.453 10.037,0.93 19.66,-4.52 20.72,-1.625 1.06,2.895 -8.625,6.508 -14.525,6.623 -5.893,0.1 -17.77,-3.896 -19.555,-5.137 -1.785,-1.241 -4.165,-4.13 -3.67,-7.148 z"
         fill="#fdd20a"
         id="path11" />
      <path
         d="m 128.943,115.592 c 0,0 -14.102,-7.52 -14.332,-4.47 -0.238,3.056 0,15.5 1.643,16.45 1.643,0.95 13.396,-6.108 13.396,-6.108 z m 5.403,-0.474 c 0,0 9.635,-7.285 11.754,-6.815 2.1,0.48 2.582,15.5 0.7,16.23 -1.88,0.7 -12.908,-3.813 -12.908,-3.813 z"
         fill="#65bc46"
         id="path12" />
      <path
         d="m 125.53,116.4 c 0,4.932 -0.7,7.05 1.4,7.52 2.1,0.47 6.104,0 7.518,-0.938 1.414,-0.938 0.232,-7.28 -0.232,-8.465 -0.477,-1.174 -8.696,-0.232 -8.696,1.884 z"
         fill="#43a244"
         id="path13" />
      <path
         d="m 126.426,115.292 c 0,4.933 -0.707,7.05 1.4,7.52 2.106,0.48 6.104,0 7.52,-0.938 1.4,-0.94 0.23,-7.28 -0.236,-8.466 -0.473,-1.173 -8.692,-0.227 -8.692,1.885 z"
         fill="#65bc46"
         id="path14" />
      <circle
         r="57.5"
         cy="78.964996"
         cx="127.331"
         fill="none"
         stroke="#de5833"
         stroke-width="5"
         id="circle14" />
    </g>
  </g>
</svg>
