<?xml version="1.0" encoding="UTF-8" standalone="no"?>
<svg
   width="120"
   height="35.096001"
   version="1.1"
   id="svg14"
   sodipodi:docname="github.svg"
   inkscape:version="1.3.2 (091e20e, 2023-11-25, custom)"
   xmlns:inkscape="http://www.inkscape.org/namespaces/inkscape"
   xmlns:sodipodi="http://sodipodi.sourceforge.net/DTD/sodipodi-0.dtd"
   xmlns:xlink="http://www.w3.org/1999/xlink"
   xmlns="http://www.w3.org/2000/svg"
   xmlns:svg="http://www.w3.org/2000/svg">
  <sodipodi:namedview
     id="namedview14"
     pagecolor="#ffffff"
     bordercolor="#000000"
     borderopacity="0.25"
     inkscape:showpageshadow="2"
     inkscape:pageopacity="0.0"
     inkscape:pagecheckerboard="0"
     inkscape:deskcolor="#d1d1d1"
     inkscape:zoom="11.533333"
     inkscape:cx="60"
     inkscape:cy="29.956647"
     inkscape:window-width="1920"
     inkscape:window-height="991"
     inkscape:window-x="-9"
     inkscape:window-y="-9"
     inkscape:window-maximized="1"
     inkscape:current-layer="svg14" />
  <defs
     id="defs3">
    <clipPath
       id="A">
      <path
         d="M 0,216 H 216 V 0 H 0 Z"
         id="path1" />
    </clipPath>
    <clipPath
       id="B">
      <path
         d="m 121.724,55.66 c 0.343,1.114 0.4,2.832 -3.038,2.054 0,0 -9.395,-1.342 -9.843,-12.303 l -0.214,-21 h -2.258 l -0.213,21 c -0.448,10.96 -9.842,12.303 -9.842,12.303 -3.428,0.778 -3.383,-0.938 -3.04,-2.052 -3.37,5.738 -12.394,4.996 -12.394,4.996 -3.133,-1.117 -0.224,-3.13 -0.224,-3.13 4.92,-1.788 5.37,-7.158 5.37,-7.158 V 35.2 l 0.52,-11.728 c 1.117,-5.224 3.874,-8.312 6.578,-10.13 l 28.803,0.033 c 3.484,2.365 7.047,6.846 7.047,15.307 V 50.37 c 0,0 0.447,5.37 5.37,7.158 0,0 2.906,2.014 -0.225,3.13 0,0 -0.382,0.03 -1.017,0.032 -2.455,0 -8.7,-0.47 -11.378,-5.03 M 94.53,34.04 v 16.552 c 0,1.617 -0.285,2.977 -0.773,4.12 3.24,-2.526 3.457,-8.855 3.457,-8.855 v -20.66 c -3.225,2.282 -2.684,8.846 -2.684,8.846 M 117.8,45.86 c 0,0 0.217,6.33 3.456,8.855 -0.487,-1.143 -0.772,-2.503 -0.772,-4.12 V 34.042 c 0,0 0.54,-6.1 -2.684,-8.612 z"
         id="path2" />
    </clipPath>
    <clipPath
       id="C">
      <path
         d="M 0,216 H 216 V 0 H 0 Z"
         id="path3" />
    </clipPath>
    <path
       id="D"
       d="m 158.542,54.996 c 0,-9.73 -22.538,-17.617 -50.34,-17.617 -27.802,0 -50.34,7.887 -50.34,17.617 0,9.73 22.537,17.62 50.34,17.62 27.803,0 50.34,-7.9 50.34,-17.62" />
    <path
       id="E"
       d="m 75.282,93.676 c 0,-0.555 -0.65,-1.006 -1.454,-1.006 -0.804,0 -1.455,0.45 -1.455,1.006 0,0.556 0.65,1.008 1.455,1.008 0.805,0 1.454,-0.45 1.454,-1.008" />
  </defs>
  <g
     id="g15"
     transform="matrix(1.0741892,0,0,1.0741892,-3.5962063,-13.701283)">
    <g
       transform="matrix(0.198578,0,0,-0.198578,-0.187848,52.8501)"
       id="g14">
      <g
         clip-path="url(#C)"
         id="g3">
        <use
           xlink:href="#D"
           fill="#a0dcf2"
           id="use3" />
      </g>
      <g
         clip-path="url(#B)"
         id="g4">
        <use
           xlink:href="#D"
           fill="#82bde7"
           id="use4" />
      </g>
      <g
         clip-path="url(#A)"
         id="g13">
        <path
           d="m 50.7,106.8 -1.453,-5.063 c 0,0 -0.378,-1.83 1.346,-2.154 1.8,0.035 1.653,1.72 1.527,2.266 l -1.42,4.95 z"
           fill="#a0dcf2"
           id="path4" />
        <path
           d="m 197.042,128.027 0.133,0.658 c -14.768,2.953 -29.922,2.983 -39.1,2.602 1.506,5.426 1.96,11.67 1.96,18.633 0,9.986 -3.752,17.975 -9.843,24.054 1.065,3.435 2.487,11.066 -1.42,20.833 0,0 -6.9,2.188 -22.476,-8.243 -6.106,1.526 -12.604,2.28 -19.112,2.28 -7.16,0 -14.395,-0.912 -21.143,-2.763 -16.086,10.975 -23.186,8.727 -23.186,8.727 -4.636,-11.6 -1.77,-20.17 -0.9,-22.302 -5.448,-5.88 -8.774,-13.384 -8.774,-22.585 0,-6.947 0.792,-13.178 2.724,-18.594 -9.247,0.336 -23.85,0.207 -38.1,-2.64 l 0.132,-0.658 c 14.325,2.865 29.018,2.965 38.2,2.617 0.425,-1.12 0.9,-2.2 1.43,-3.26 -9.088,-0.293 -24.604,-1.45 -39.475,-5.646 l 0.182,-0.645 c 14.988,4.227 30.64,5.356 39.64,5.63 5.43,-10.12 16.135,-16.658 35.18,-18.7 -2.704,-1.816 -5.46,-4.904 -6.58,-10.13 -3.683,-1.76 -15.343,-6.062 -22.34,5.97 0,0 -3.916,7.16 -11.412,7.72 0,0 -7.27,0.1 -0.503,-4.53 0,0 4.867,-2.293 8.223,-10.9 0,0 4.38,-14.695 25.512,-9.98 v -15.18 c 0,0 -0.447,-5.37 -5.37,-7.158 0,0 -2.908,-2.014 0.224,-3.13 0,0 13.645,-1.12 13.645,10.065 v 16.552 c 0,0 -0.54,6.565 2.683,8.846 V 68.963 c 0,0 -0.222,-6.487 -3.578,-8.948 0,0 -2.237,-4.025 2.684,-2.908 0,0 9.394,1.342 9.842,12.303 l 0.214,27.513 h 2.257 L 108.81,69.41 c 0.447,-10.96 9.842,-12.303 9.842,-12.303 4.92,-1.117 2.683,2.908 2.683,2.908 -3.355,2.46 -3.578,8.948 -3.578,8.948 v 26.953 c 3.223,-2.5 2.684,-8.612 2.684,-8.612 V 70.752 c 0,-11.184 13.644,-10.065 13.644,-10.065 3.13,1.117 0.225,3.13 0.225,3.13 -4.922,1.8 -5.37,7.158 -5.37,7.158 v 21.697 c 0,8.46 -3.563,12.942 -7.047,15.307 20.3,2.014 30.056,8.572 34.548,18.762 8.896,-0.244 24.906,-1.328 40.22,-5.65 l 0.182,0.645 c -15.227,4.295 -31.13,5.406 -40.117,5.668 0.426,1.03 0.797,2.1 1.127,3.2 9.105,0.4 24.328,0.385 39.154,-2.58"
           fill="#292929"
           id="path5" />
        <path
           d="m 140.178,150.4 c 4.375,-3.963 6.934,-8.75 6.934,-13.905 0,-24.075 -17.948,-24.728 -40.085,-24.728 -22.137,0 -40.087,3.323 -40.087,24.718 0,5.122 2.524,9.878 6.845,13.825 7.206,6.578 19.404,3.095 33.24,3.095 13.782,0 25.934,3.518 33.15,-3.015"
           fill="#f5cdb5"
           id="path6" />
        <path
           d="m 93.697,135.258 c 0,-6.63 -3.734,-12.006 -8.34,-12.006 -4.606,0 -8.342,5.375 -8.342,12.006 0,6.631 3.736,12.004 8.342,12.004 4.606,0 8.34,-5.373 8.34,-12.004"
           fill="#ffffff"
           id="path7" />
        <path
           d="m 91.02,135.107 c 0,-4.42 -2.5,-8.002 -5.56,-8.002 -3.06,0 -5.56,3.582 -5.56,8.002 0,4.42 2.488,8.006 5.56,8.006 3.072,0 5.56,-3.584 5.56,-8.006"
           fill="#b1645a"
           id="path8" />
        <path
           d="m 138.443,135.258 c 0,-6.63 -3.734,-12.006 -8.342,-12.006 -4.608,0 -8.34,5.375 -8.34,12.006 0,6.631 3.735,12.004 8.34,12.004 4.605,0 8.342,-5.373 8.342,-12.004"
           fill="#ffffff"
           id="path9" />
        <path
           d="m 135.766,135.107 c 0,-4.42 -2.5,-8.002 -5.56,-8.002 -3.06,0 -5.56,3.582 -5.56,8.002 0,4.42 2.5,8.006 5.56,8.006 3.06,0 5.56,-3.584 5.56,-8.006 m -26.536,-10.5 c 0,-1.152 -0.934,-2.086 -2.086,-2.086 -1.152,0 -2.086,0.934 -2.086,2.086 0,1.152 0.933,2.086 2.086,2.086 1.153,0 2.086,-0.934 2.086,-2.086 m -6.945,-5.275 a 0.67082673,0.67082673 0 1 0 1.265,0.447 c 0.536,-1.515 1.973,-2.533 3.577,-2.533 1.604,0 3.04,1.018 3.578,2.533 a 0.67035532,0.67035532 0 1 0 1.264,-0.447 5.15,5.15 0 0 0 -9.684,0"
           fill="#b1645a"
           id="path10" />
        <g
           fill="#c5e6da"
           id="g12">
          <path
             d="m 56.04,109.785 c 0,-0.557 -0.652,-1.006 -1.455,-1.006 -0.803,0 -1.454,0.45 -1.454,1.006 0,0.556 0.65,1.008 1.454,1.008 0.804,0 1.455,-0.45 1.455,-1.008 m 4.028,-2.235 c 0,-0.557 -0.652,-1.008 -1.455,-1.008 -0.803,0 -1.454,0.45 -1.454,1.008 0,0.558 0.65,1.006 1.454,1.006 0.804,0 1.455,-0.45 1.455,-1.006 m 2.462,-2.9 c 0,-0.555 -0.65,-1.006 -1.455,-1.006 -0.805,0 -1.453,0.45 -1.453,1.006 0,0.556 0.65,1.008 1.453,1.008 0.803,0 1.455,-0.45 1.455,-1.008 m 2.235,-3.357 c 0,-0.557 -0.65,-1.008 -1.453,-1.008 -0.803,0 -1.455,0.45 -1.455,1.008 0,0.558 0.65,1.008 1.455,1.008 0.805,0 1.453,-0.45 1.453,-1.008 m 2.462,-3.143 c 0,-0.555 -0.65,-1.006 -1.454,-1.006 -0.804,0 -1.455,0.45 -1.455,1.006 0,0.556 0.652,1.008 1.455,1.008 0.803,0 1.454,-0.45 1.454,-1.008 m 3.357,-2.683 c 0,-0.557 -0.65,-1.008 -1.455,-1.008 -0.805,0 -1.453,0.45 -1.453,1.008 0,0.558 0.65,1.006 1.453,1.006 0.803,0 1.455,-0.45 1.455,-1.006"
             id="path11" />
          <use
             xlink:href="#E"
             id="use11" />
          <use
             xlink:href="#E"
             x="4.6760001"
             id="use12" />
          <path
             d="m 84.704,94.455 c 0,-0.557 -0.65,-1.008 -1.454,-1.008 -0.804,0 -1.455,0.45 -1.455,1.008 0,0.558 0.65,1.008 1.455,1.008 0.805,0 1.454,-0.45 1.454,-1.008"
             id="path12" />
        </g>
      </g>
    </g>
    <path
       d="m 50.666,21.143 c 1.1,0 2.353,-0.273 3.785,-0.818 v 3.513 c -0.318,0.114 -0.773,0.24 -1.364,0.375 0.182,0.523 0.273,1.012 0.273,1.466 0,1.455 -0.443,2.728 -1.33,3.82 a 5.13,5.13 0 0 1 -3.376,1.9 c -0.9,0.136 -1.364,0.625 -1.364,1.466 0,0.296 0.148,0.6 0.443,0.887 0.386,0.432 0.955,0.705 1.705,0.818 3.25,0.5 4.877,1.853 4.877,4.058 0,3.524 -2.103,5.286 -6.3,5.286 -1.728,0 -3.15,-0.307 -4.263,-0.92 -1.4,-0.773 -2.114,-2 -2.114,-3.65 0,-1.9 1.057,-3.217 3.17,-3.922 v -0.068 c -0.773,-0.477 -1.16,-1.205 -1.16,-2.182 0,-1.273 0.364,-2.07 1.1,-2.387 v -0.068 c -0.728,-0.25 -1.375,-0.818 -1.944,-1.705 -0.637,-0.955 -0.955,-1.978 -0.955,-3.07 0,-1.637 0.58,-3 1.74,-4.092 a 5.7,5.7 0 0 1 4,-1.534 6.15,6.15 0 0 1 3.103,0.818 m -5.115,4.842 c 0,1.57 0.716,2.353 2.148,2.353 1.387,0 2.08,-0.796 2.08,-2.387 0,-0.66 -0.16,-1.228 -0.477,-1.705 -0.386,-0.523 -0.92,-0.784 -1.603,-0.784 -1.432,0 -2.148,0.84 -2.148,2.524 m 5.252,13.095 c 0,-1.16 -0.955,-1.74 -2.865,-1.74 -1.842,0 -2.762,0.602 -2.762,1.807 0,1.182 1,1.773 3,1.773 1.75,0 2.626,-0.614 2.626,-1.84 M 58.3,17.835 c -0.66,0 -1.228,-0.25 -1.705,-0.75 a 2.55,2.55 0 0 1 -0.682,-1.773 c 0,-0.705 0.227,-1.307 0.682,-1.807 0.477,-0.5 1.046,-0.75 1.705,-0.75 0.637,0 1.182,0.25 1.637,0.75 0.477,0.5 0.716,1.103 0.716,1.807 a 2.48,2.48 0 0 1 -0.716,1.773 c -0.455,0.5 -1,0.75 -1.637,0.75 m -1.944,17.8 c 0.045,-0.455 0.068,-1.228 0.068,-2.32 V 22.712 L 56.356,20.495 H 60.2 c -0.045,0.432 -0.068,1.148 -0.068,2.148 v 10.47 l 0.068,2.524 h -3.854 m 11,-15.142 h 2.967 v 3.308 a 9.98,9.98 0 0 1 -0.648,-0.034 l -0.853,-0.034 h -1.466 v 6.343 c 0,1.523 0.5,2.285 1.5,2.285 a 3.32,3.32 0 0 0 1.91,-0.58 v 3.4 c -0.84,0.455 -1.853,0.682 -3.035,0.682 -1.66,0 -2.808,-0.6 -3.444,-1.773 -0.477,-0.887 -0.716,-2.285 -0.716,-4.194 v -6.104 h 0.034 v -0.068 l -0.512,-0.034 a 8.61,8.61 0 0 0 -1.16,0.102 v -3.308 h 1.67 v -1.33 c 0,-0.637 -0.034,-1.148 -0.102,-1.535 h 3.956 c -0.068,0.432 -0.102,0.92 -0.102,1.466 v 1.398 m 12.1,-0.092 c -0.978,0 -2,0.34 -3.07,1.023 v -5.968 l 0.068,-2.558 h -3.888 c 0.068,0.364 0.102,1.216 0.102,2.558 v 18.04 l -0.102,2.148 h 3.956 c 0,-0.068 -0.023,-0.34 -0.068,-0.82 l -0.068,-1.33 V 25.1 c 0.796,-0.75 1.57,-1.125 2.32,-1.125 0.864,0 1.523,0.432 1.978,1.296 0.34,0.682 0.512,1.535 0.512,2.558 l -0.034,4.604 c 0,0.773 -0.057,1.84 -0.17,3.206 h 4.126 c -0.1,-0.568 -0.136,-1.614 -0.136,-3.137 V 27.83 c 0,-1.978 -0.443,-3.66 -1.33,-5.047 -1,-1.6 -2.4,-2.387 -4.195,-2.387 M 92.55,35.773 c -1.796,0 -3.126,-0.796 -4,-2.387 -0.682,-1.296 -1.023,-3 -1.023,-5.08 v -4.672 l -0.136,-3.137 h 4.092 c -0.068,0.5 -0.114,1.57 -0.136,3.206 l -0.034,4.604 c 0,1.296 0.148,2.228 0.443,2.796 0.34,0.705 0.966,1.057 1.876,1.057 0.637,0 1.353,-0.375 2.148,-1.125 v -8.4 a 14.89,14.89 0 0 0 -0.068,-1.33 L 95.644,20.487 H 99.6 c -0.045,0.387 -0.068,1.103 -0.068,2.148 V 33.08 L 99.6,35.638 H 95.9 V 34.4 c -1.046,0.9 -2.16,1.364 -3.342,1.364 m 16.77,-0.034 a 4,4 0 0 1 -3.069,-1.33 v 1.228 h -3.615 c 0.068,-0.387 0.102,-1.103 0.102,-2.148 V 15.45 l -0.102,-2.558 h 3.888 c -0.046,0.4 -0.068,1.262 -0.068,2.558 v 5.934 c 1.046,-0.66 2.07,-1 3.07,-1 1.796,0 3.206,0.796 4.23,2.387 0.864,1.387 1.296,3.07 1.296,5.047 0,2.023 -0.455,3.785 -1.364,5.286 -1.1,1.75 -2.546,2.626 -4.365,2.626 m -0.512,-11.765 c -0.75,0 -1.535,0.375 -2.353,1.125 V 31 c 0.728,0.705 1.444,1.057 2.148,1.057 0.887,0 1.557,-0.5 2.012,-1.466 0.364,-0.773 0.546,-1.694 0.546,-2.762 0,-2.57 -0.784,-3.853 -2.353,-3.853"
       id="path14" />
  </g>
</svg>
