<?xml version="1.0" encoding="UTF-8" standalone="no"?>
<svg
   height="32.778999"
   width="100"
   version="1.1"
   id="svg4"
   sodipodi:docname="google.svg"
   inkscape:version="1.3.2 (091e20e, 2023-11-25, custom)"
   xmlns:inkscape="http://www.inkscape.org/namespaces/inkscape"
   xmlns:sodipodi="http://sodipodi.sourceforge.net/DTD/sodipodi-0.dtd"
   xmlns:xlink="http://www.w3.org/1999/xlink"
   xmlns="http://www.w3.org/2000/svg"
   xmlns:svg="http://www.w3.org/2000/svg">
  <sodipodi:namedview
     id="namedview4"
     pagecolor="#ffffff"
     bordercolor="#000000"
     borderopacity="0.25"
     inkscape:showpageshadow="2"
     inkscape:pageopacity="0.0"
     inkscape:pagecheckerboard="0"
     inkscape:deskcolor="#d1d1d1"
     inkscape:zoom="11.533333"
     inkscape:cx="60"
     inkscape:cy="29.956647"
     inkscape:window-width="1920"
     inkscape:window-height="991"
     inkscape:window-x="-9"
     inkscape:window-y="-9"
     inkscape:window-maximized="1"
     inkscape:current-layer="svg4" />
  <g
     id="g4"
     transform="matrix(0.93194908,0,0,0.93194908,-5.5861028,-13.06779)">
    <path
       d="m 32.377,26.446 h -12.52 v 3.715 h 8.88 c -0.44,5.2 -4.773,7.432 -8.865,7.432 A 9.76,9.76 0 0 1 10.07,27.702 c 0,-5.624 4.354,-9.954 9.814,-9.954 4.212,0 6.694,2.685 6.694,2.685 l 2.6,-2.694 c 0,0 -3.34,-3.717 -9.43,-3.717 -7.755,0 -13.754,6.545 -13.754,13.614 0,6.927 5.643,13.682 13.95,13.682 7.307,0 12.656,-5.006 12.656,-12.408 0,-1.562 -0.227,-2.464 -0.227,-2.464 z"
       fill="#4885ed"
       id="path1" />
    <use
       xlink:href="#A"
       fill="#db3236"
       id="use1" />
    <use
       xlink:href="#A"
       x="19.181"
       fill="#f4c20d"
       id="use2" />
    <path
       d="m 80.628,23.765 c -4.716,0 -8.422,4.13 -8.422,8.766 0,5.28 4.297,8.782 8.34,8.782 2.5,0 3.83,-0.993 4.8,-2.132 v 1.73 c 0,3.027 -1.838,4.84 -4.612,4.84 -2.68,0 -4.024,-1.993 -4.5,-3.123 l -3.372,1.4 c 1.196,2.53 3.604,5.167 7.9,5.167 4.7,0 8.262,-2.953 8.262,-9.147 V 24.292 H 85.36 v 1.486 c -1.13,-1.22 -2.678,-2.013 -4.73,-2.013 z m 0.34,3.44 c 2.312,0 4.686,1.974 4.686,5.345 0,3.427 -2.37,5.315 -4.737,5.315 -2.514,0 -4.853,-2.04 -4.853,-5.283 0,-3.368 2.43,-5.378 4.904,-5.378 z"
       fill="#4885ed"
       id="path2" />
    <path
       d="m 105.4,23.744 c -4.448,0 -8.183,3.54 -8.183,8.76 0,5.526 4.163,8.803 8.6,8.803 3.712,0 6,-2.03 7.35,-3.85 l -3.033,-2.018 c -0.787,1.22 -2.103,2.415 -4.298,2.415 -2.466,0 -3.6,-1.35 -4.303,-2.66 l 11.763,-4.88 -0.6,-1.43 c -1.136,-2.8 -3.787,-5.14 -7.295,-5.14 z m 0.153,3.374 c 1.603,0 2.756,0.852 3.246,1.874 l -7.856,3.283 c -0.34,-2.542 2.07,-5.157 4.6,-5.157 z"
       fill="#db3236"
       id="path3" />
    <path
       d="m 91.6,40.787 h 3.864 V 14.93 H 91.6 Z"
       fill="#3cba54"
       id="path4" />
  </g>
  <defs
     id="defs4">
    <path
       id="A"
       d="m 42.634,23.755 c -5.138,0 -8.82,4.017 -8.82,8.7 0,4.754 3.57,8.845 8.88,8.845 4.806,0 8.743,-3.673 8.743,-8.743 0,-5.8 -4.58,-8.803 -8.803,-8.803 z m 0.05,3.446 c 2.526,0 4.92,2.043 4.92,5.334 0,3.22 -2.384,5.322 -4.932,5.322 -2.8,0 -5,-2.242 -5,-5.348 0,-3.04 2.18,-5.308 5.02,-5.308 z" />
  </defs>
</svg>
