<?xml version="1.0" encoding="UTF-8" standalone="no"?>
<svg
   width="100"
   height="32.528"
   version="1.1"
   id="svg7"
   sodipodi:docname="qwant.svg"
   inkscape:version="1.3.2 (091e20e, 2023-11-25, custom)"
   xmlns:inkscape="http://www.inkscape.org/namespaces/inkscape"
   xmlns:sodipodi="http://sodipodi.sourceforge.net/DTD/sodipodi-0.dtd"
   xmlns="http://www.w3.org/2000/svg"
   xmlns:svg="http://www.w3.org/2000/svg">
  <defs
     id="defs7" />
  <sodipodi:namedview
     id="namedview7"
     pagecolor="#ffffff"
     bordercolor="#000000"
     borderopacity="0.25"
     inkscape:showpageshadow="2"
     inkscape:pageopacity="0.0"
     inkscape:pagecheckerboard="0"
     inkscape:deskcolor="#d1d1d1"
     inkscape:zoom="11.533333"
     inkscape:cx="60"
     inkscape:cy="29.956647"
     inkscape:window-width="1920"
     inkscape:window-height="991"
     inkscape:window-x="-9"
     inkscape:window-y="-9"
     inkscape:window-maximized="1"
     inkscape:current-layer="svg7" />
  <g
     id="g9"
     transform="matrix(0.95500315,0,0,0.95500315,-7.2946041,-12.761714)">
    <g
       id="g7">
      <path
         d="M 112.326,37.065 V 37.04 l -0.21,-1.664 c -0.022,-0.148 -0.148,-0.26 -0.298,-0.26 -0.025,-0.002 -0.05,0.002 -0.075,0.012 -0.025,0.01 -0.048,0.022 -0.075,0.025 a 3.81,3.81 0 0 1 -1.366,0.248 1.46,1.46 0 0 1 -1.205,-0.447 c -0.273,-0.447 -0.395,-0.97 -0.348,-1.5 v -3.7 h 2.856 c 0.15,-0.01 0.27,-0.135 0.273,-0.286 V 27.8 a 0.3,0.3 0 0 0 -0.298,-0.286 h -2.82 v -2.447 c -0.017,-0.153 -0.144,-0.27 -0.298,-0.273 h -2.124 c -0.077,-0.002 -0.152,0.027 -0.208,0.08 -0.056,0.053 -0.088,0.127 -0.1,0.205 v 2.422 h -1.64 c -0.08,-0.001 -0.156,0.03 -0.212,0.086 -0.056,0.056 -0.087,0.133 -0.086,0.212 v 1.652 c -0.004,0.143 0.095,0.27 0.236,0.298 h 1.7 v 4.185 c 0,1.316 0.298,2.285 0.907,2.918 0.609,0.633 1.528,0.956 2.77,0.956 a 6.56,6.56 0 0 0 1.503,-0.161 c 0.33,-0.07 0.65,-0.174 0.956,-0.3 0.1,-0.04 0.184,-0.144 0.186,-0.26 v -0.012 c -0.037,0.012 -0.037,0.012 -0.037,0 z"
         fill="#11100e"
         id="path1" />
      <path
         d="m 64.028,34.78 c -0.05,-0.072 -0.087,-0.152 -0.112,-0.236 -0.037,-0.2 0.137,-0.373 0.236,-0.534 a 4.66,4.66 0 0 0 0.298,-0.546 c 0.585,-1.152 0.867,-2.434 0.82,-3.726 a 7.92,7.92 0 0 0 -0.534,-2.732 c -0.316,-0.8 -0.765,-1.538 -1.33,-2.186 a 6.79,6.79 0 0 0 -1.8,-1.503 7.51,7.51 0 0 0 -2.322,-0.92 8.62,8.62 0 0 0 -2.645,-0.174 7.77,7.77 0 0 0 -4.843,2.161 7.64,7.64 0 0 0 -2.298,4.794 8.63,8.63 0 0 0 0.161,2.707 7.98,7.98 0 0 0 1.018,2.447 c 0.466,0.733 1.06,1.376 1.75,1.9 a 7.66,7.66 0 0 0 2.26,1.167 7.49,7.49 0 0 0 1.366,0.31 7.88,7.88 0 0 0 1.329,0.087 10.9,10.9 0 0 0 1.267,-0.112 7.11,7.11 0 0 0 0.695,-0.137 c 0.186,-0.05 0.397,-0.087 0.472,-0.286 0.036,-0.16 0,-0.33 -0.1,-0.46 l -0.273,-0.56 -0.5,-1.018 a 0.35,0.35 0 0 0 -0.224,-0.2 0.56,0.56 0 0 0 -0.286,0.012 l -0.335,0.062 a 5.31,5.31 0 0 1 -1.403,0 C 54.902,34.86 53.367,33.693 52.659,32.029 a 5.26,5.26 0 0 1 -0.385,-2.62 5.13,5.13 0 0 1 0.956,-2.434 c 1.067,-1.452 2.813,-2.242 4.608,-2.086 a 5.12,5.12 0 0 1 4.67,4.819 5.09,5.09 0 0 1 -0.41,2.31 c -0.297,0.696 -0.747,1.316 -1.316,1.813 -0.086,0.06 -0.154,0.14 -0.2,0.236 -0.027,0.086 -0.023,0.178 0.012,0.26 l 1.465,2.906 c 0.075,0.15 0.15,0.373 0.298,0.46 a 0.73,0.73 0 0 0 0.36,0.05 h 2.248 a 0.36,0.36 0 0 0 0.323,-0.534 l -0.422,-0.807 z m 13.262,-0.448 1.8,-6.67 c 0.037,-0.126 0.154,-0.213 0.286,-0.2 h 2.16 a 0.3,0.3 0 0 1 0.298,0.298 c 0.002,0.03 -0.002,0.06 -0.012,0.087 l -3.142,9.45 c -0.05,0.105 -0.156,0.173 -0.273,0.174 h -2.05 C 76.24,37.47 76.134,37.403 76.084,37.297 l -2.198,-6.433 -2.1,6.458 a 0.29,0.29 0 0 1 -0.261,0.161 h -2.012 c -0.122,0.003 -0.23,-0.072 -0.273,-0.186 l -3.154,-9.538 a 0.3,0.3 0 0 1 0.298,-0.298 H 68.6 c 0.108,0.01 0.202,0.076 0.248,0.174 l 1.776,6.694 2.074,-6.68 a 0.31,0.31 0 0 1 0.273,-0.186 h 1.863 c 0.117,10e-4 0.223,0.068 0.273,0.174 z m 12.47,-5.588 a 3.34,3.34 0 0 0 -1.329,-1.192 4.03,4.03 0 0 0 -1.863,-0.422 4.42,4.42 0 0 0 -2.484,0.733 4.97,4.97 0 0 0 -1.701,1.95 5.93,5.93 0 0 0 -0.596,2.67 v 0.2 a 5.95,5.95 0 0 0 0.609,2.583 4.58,4.58 0 0 0 1.664,1.863 4.39,4.39 0 0 0 2.372,0.646 4.61,4.61 0 0 0 1.652,-0.273 3.44,3.44 0 0 0 1.677,-1.33 l 0.025,1.018 c 0.022,0.148 0.148,0.26 0.298,0.26 h 2.024 a 0.3,0.3 0 0 0 0.298,-0.298 V 27.75 a 0.3,0.3 0 0 0 -0.298,-0.298 h -2.024 c -0.146,10e-4 -0.27,0.105 -0.298,0.248 v 0.012 z m -0.596,1.7 a 3.28,3.28 0 0 1 -0.062,4.086 2.67,2.67 0 0 1 -3.825,0 2.93,2.93 0 0 1 -0.745,-1.85 3.08,3.08 0 0 1 0.733,-2.298 2.5,2.5 0 0 1 1.925,-0.807 2.57,2.57 0 0 1 1.975,0.87 z m 7.638,-2.73 c -0.022,-0.148 -0.148,-0.26 -0.298,-0.26 h -2.037 a 0.3,0.3 0 0 0 -0.298,0.298 v 9.414 a 0.3,0.3 0 0 0 0.298,0.298 h 2.15 a 0.3,0.3 0 0 0 0.286,-0.2 v -5.18 a 2.87,2.87 0 0 1 0.546,-1.863 c 0.38,-0.445 0.944,-0.7 1.528,-0.658 q 1.788,0 1.788,2.347 v 5.365 c 0.04,0.124 0.155,0.2 0.286,0.2 h 2.15 c 0.08,10e-4 0.156,-0.03 0.212,-0.086 0.056,-0.056 0.087,-0.133 0.086,-0.212 V 31.4 c 0,-1.38 -0.3,-2.434 -0.93,-3.154 -0.62,-0.733 -1.528,-1.093 -2.707,-1.093 a 4.05,4.05 0 0 0 -1.826,0.397 2.92,2.92 0 0 0 -1.205,1.155 z"
         fill="#1d1e1c"
         id="path2" />
    </g>
    <g
       id="g8">
      <path
         d="m 35.776,46.242 c 0.162,0.336 0.325,0.835 0.673,1.032 a 1.61,1.61 0 0 0 0.812,0.104 h 5.034 c 0.288,-10e-4 0.555,-0.152 0.704,-0.398 0.149,-0.246 0.16,-0.553 0.027,-0.808 l -0.95,-1.798 -1.937,-3.653 a 1.85,1.85 0 0 1 -0.244,-0.534 c 0,0 -0.07,-0.116 0.023,-0.43 0.093,-0.232 1.264,-2.54 1.334,-2.772 0.476,-1.473 6.263,-15.426 -10.16,-16.852 a 3.72,3.72 0 0 1 0.36,0.22 11.69,11.69 0 0 1 3.503,3.491 11.49,11.49 0 0 1 0.881,10.694 11.17,11.17 0 0 1 -0.87,1.647 c -0.572,0.897 -1.267,1.71 -2.064,2.412 -0.192,0.133 -0.34,0.318 -0.43,0.534 a 0.8,0.8 0 0 0 0.035,0.592 z"
         fill="#4ba2ea"
         id="path3" />
      <path
         d="m 7.754,28.01 c 2.644,-1.798 5.312,-1.914 6.147,0.568 a 0.52,0.52 0 0 0 -0.012,0.128 c -0.73,6.218 3.664,11.873 9.87,12.7 1.04,0.14 2.093,0.137 3.132,-0.012 0.255,-0.035 0.5,-0.08 0.754,-0.128 0.18,-0.05 0.37,-0.066 0.557,-0.046 0.3,3.55 -10.844,4.477 -17.734,-4.013 C 8.763,35.107 7.94,30.874 7.754,28.01"
         fill="#ff3b4a"
         id="path4" />
      <path
         d="m 42.143,35.19 c -0.28,0.9 -0.632,1.755 -1.055,2.586 l -0.267,0.5 -0.406,0.707 a 4.21,4.21 0 0 0 -0.499,0.823 l 0.012,-0.046 c 0.093,-0.23 0.175,-0.468 0.244,-0.707 2.48,-7.717 -1.51,-16.025 -9.08,-18.917 -0.058,-0.035 -0.104,-0.058 -0.162,-0.093 0.44,0.232 -2.088,-6.135 3.166,-5.312 0.22,0.116 0.44,0.244 0.66,0.37 a 16.69,16.69 0 0 1 4.013,3.363 16.86,16.86 0 0 1 2.969,4.883 17.71,17.71 0 0 1 1.183,6.101 17.72,17.72 0 0 1 -0.777,5.73 z"
         fill="#65cee7"
         id="path5" />
      <path
         d="m 35.497,17.327 a 3.16,3.16 0 0 1 -0.22,1.148 c -0.472,1.175 -1.6,1.946 -2.876,1.95 a 3.15,3.15 0 0 1 -1.473,-0.371 c -1.428,-0.8 -3.01,-1.3 -4.64,-1.438 a 11.27,11.27 0 0 0 -5.904,1.055 c -0.894,0.418 -1.73,0.952 -2.482,1.59 -0.71,0.595 -1.343,1.272 -1.89,2.018 -1.046,1.442 -1.75,3.104 -2.053,4.86 -5.648,-6.913 5.95,-18.047 18.963,-13.86 a 14.72,14.72 0 0 1 0.673,0.197 c 0.162,0.08 0.336,0.162 0.5,0.255 h 0.012 c 0.87,0.578 1.393,1.553 1.392,2.598 z"
         fill="#87c966"
         id="path6" />
      <path
         d="m 30.754,46.22 c -0.162,0.464 -0.638,0.545 -1.067,0.65 -0.5,0.128 -1.02,0.22 -1.543,0.302 -0.94,0.14 -1.89,0.197 -2.83,0.244 A 15.78,15.78 0 0 1 22.356,47.23 19.68,19.68 0 0 1 19.306,46.534 16.73,16.73 0 0 1 12.869,42.73 16.45,16.45 0 0 1 10.341,39.668 C 9.271,37.994 8.501,36.145 8.068,34.205 A 19.87,19.87 0 0 1 7.743,28.058 v -0.046 c 0.425,7.525 6.367,13.566 13.883,14.115 0.406,0.035 0.812,0.046 1.23,0.046 1.822,0.004 3.63,-0.322 5.335,-0.963 0.028,0.004 0.055,0.012 0.08,0.023 0.225,0.07 0.407,0.236 0.5,0.452 l 1.137,2.273 c 0.012,0.023 0.023,0.058 0.035,0.08 l 0.58,1.16 c 0.174,0.325 0.37,0.638 0.232,1.02 z"
         fill="#af27cc"
         id="path7" />
    </g>
  </g>
</svg>
