<?xml version="1.0" encoding="UTF-8" standalone="no"?>
<svg
   width="120"
   height="47.062"
   version="1.1"
   id="svg3"
   sodipodi:docname="yandex.svg"
   inkscape:version="1.3.2 (091e20e, 2023-11-25, custom)"
   xmlns:inkscape="http://www.inkscape.org/namespaces/inkscape"
   xmlns:sodipodi="http://sodipodi.sourceforge.net/DTD/sodipodi-0.dtd"
   xmlns="http://www.w3.org/2000/svg"
   xmlns:svg="http://www.w3.org/2000/svg">
  <defs
     id="defs3" />
  <sodipodi:namedview
     id="namedview3"
     pagecolor="#ffffff"
     bordercolor="#000000"
     borderopacity="0.25"
     inkscape:showpageshadow="2"
     inkscape:pageopacity="0.0"
     inkscape:pagecheckerboard="0"
     inkscape:deskcolor="#d1d1d1"
     inkscape:zoom="11.533333"
     inkscape:cx="60"
     inkscape:cy="29.956647"
     inkscape:window-width="1920"
     inkscape:window-height="991"
     inkscape:window-x="-9"
     inkscape:window-y="-9"
     inkscape:window-maximized="1"
     inkscape:current-layer="svg3" />
  <g
     id="g3"
     transform="matrix(1.298041,0,0,1.298041,-17.887006,-15.411641)">
    <path
       d="M 67.48,48.127 C 65.105,47.3 63.744,45.485 63.077,43.19 c -1.294,-4.443 -1.107,-8.886 0.52,-13.236 0.387,-1.04 1,-1.988 1.8,-2.762 1.8,-1.735 3.923,-2.122 6.27,-1.4 0.213,0.067 0.44,0.147 0.72,0.24 V 15.756 c 0,-0.654 0.053,-0.694 0.72,-0.707 h 1.988 c 0.627,0 0.654,0.027 0.667,0.64 v 31.6 c 0,0.294 -0.133,0.467 -0.454,0.44 h -0.04 c -0.494,0 -1.054,0.133 -1.454,-0.067 -0.387,-0.187 -0.614,-0.72 -0.867,-1.04 l -2.508,1.48 -2.962,0.013 z m 4.924,-11.195 0.027,-6.978 c 0.027,-0.774 -0.267,-1.16 -0.92,-1.428 -0.213,-0.08 -0.427,-0.187 -0.64,-0.24 -1.334,-0.4 -2.415,-0.067 -3.202,1.08 -0.374,0.534 -0.707,1.134 -0.907,1.748 -1.188,3.55 -1.188,7.165 -0.347,10.794 0.093,0.387 0.254,0.76 0.4,1.12 0.96,2.282 2.882,3.002 5.137,1.96 0.334,-0.16 0.467,-0.334 0.467,-0.72 l -0.013,-7.34 z"
       id="path1" />
    <path
       d="m 33.08,11.874 c 0.294,0.227 0.147,0.494 0.053,0.747 l -3.723,10.14 -4.5,12.396 a 2.36,2.36 0 0 0 -0.147,0.801 v 11.1 c 0,0.667 -0.013,0.667 -0.68,0.667 -0.694,0 -1.388,-0.027 -2.082,0.013 -0.44,0.013 -0.6,-0.133 -0.587,-0.574 l 0.013,-4.1 V 35.93 A 2.35,2.35 0 0 0 21.28,35.076 l -7.3,-19.094 c -0.053,-0.147 -0.133,-0.267 -0.2,-0.4 v -0.28 c 0.213,-0.067 0.427,-0.173 0.64,-0.173 l 2.308,-0.013 c 0,0 0.76,0 1.014,0.72 l 5.43,15.304 0.227,0.547 0.187,-0.614 1.067,-3.91 4.757,-14.743 c 0.067,-0.187 0.227,-0.347 0.347,-0.52 l 3.322,-0.027 z"
       fill="#e52620"
       id="path2" />
    <path
       d="m 34.28,48.127 c -3.362,-1.374 -4.283,-5.337 -4.03,-8.113 0.107,-1.147 0.347,-2.242 0.84,-3.296 1.468,-3.122 4.43,-4.27 7.62,-2.935 l 0.534,0.227 c -0.04,-1.68 0.013,-3.322 -0.88,-4.777 -0.6,-0.987 -1.534,-1.348 -2.615,-0.934 -0.734,0.28 -1.414,0.68 -2.095,1.054 -0.627,0.347 -0.747,0.334 -1.054,-0.307 l -0.827,-1.76 c -0.147,-0.294 -0.133,-0.547 0.2,-0.694 1.948,-0.814 3.95,-1.454 6.098,-1.054 2.255,0.414 3.576,1.895 4.043,4.056 0.307,1.454 0.44,2.962 0.467,4.443 l 0.027,13.13 c 0,0.427 -0.133,0.56 -0.574,0.614 -1.147,0.147 -1.935,-0.16 -2.148,-1.4 -0.013,-0.053 -0.053,-0.107 -0.12,-0.24 -0.774,0.92 -1.695,1.588 -2.8,1.988 H 34.28 Z m 4.964,-7.525 v -2.63 c 0,-1.228 -0.093,-1.36 -1.254,-1.775 a 2.69,2.69 0 0 0 -0.307,-0.093 c -1.64,-0.467 -2.7,0 -3.336,1.574 -0.774,1.948 -0.774,3.95 -0.04,5.9 0.334,0.894 0.92,1.615 1.935,1.815 1.027,0.2 1.908,-0.187 2.682,-0.827 0.173,-0.147 0.307,-0.427 0.307,-0.64 l 0.013,-3.336 z m 45.714,7.525 c -2.428,-0.694 -3.963,-2.335 -4.87,-4.617 -0.32,-0.814 -0.587,-1.668 -0.707,-2.522 -0.587,-3.843 -0.32,-7.62 1.147,-11.248 0.454,-1.134 1.094,-2.175 2.04,-3 2.295,-2 5.364,-1.615 7.112,0.867 0.88,1.254 1.308,2.67 1.588,4.15 0.36,1.908 0.36,3.83 0.334,5.724 h -8.86 c 0,0.68 -0.093,1.454 0.027,2.202 0.173,1 0.4,2.028 0.8,2.962 0.76,1.775 2.322,2.67 4.256,2.535 0.827,-0.053 1.64,-0.213 2.468,-0.36 0.387,-0.08 0.587,0.013 0.654,0.4 0.067,0.334 0.12,0.667 0.24,0.987 0.147,0.414 0,0.654 -0.374,0.787 l -3.07,1.12 h -2.8 z M 88.12,34.8 c 0.013,-0.093 0.04,-0.2 0.027,-0.307 -0.107,-1.12 -0.173,-2.242 -0.334,-3.35 -0.133,-0.854 -0.4,-1.68 -0.96,-2.375 -0.654,-0.8 -1.655,-0.867 -2.362,-0.12 -0.267,0.28 -0.534,0.627 -0.654,0.987 a 29.59,29.59 0 0 0 -0.801,3.069 c -0.16,0.76 -0.173,1.534 -0.254,2.282 l 5.337,-0.187 z m 18.107,-8.4 -4.43,9.74 c -0.133,0.28 -0.147,0.52 -0.013,0.814 l 4.243,9.98 c 0.28,0.654 0.173,0.8 -0.507,0.8 -0.64,0 -1.294,-0.027 -1.935,0.013 -0.48,0.027 -0.734,-0.173 -0.894,-0.6 l -2.722,-7.352 -0.2,-0.534 -0.36,1.094 -2.35,6.755 c -0.16,0.454 -0.414,0.68 -0.92,0.654 -0.6,-0.027 -1.2,0 -1.8,-0.013 -0.68,0 -0.814,-0.213 -0.547,-0.854 l 3.442,-8.113 0.92,-2.215 c 0.08,-0.213 0.093,-0.52 0,-0.72 l -3.963,-9.047 c -0.307,-0.707 -0.2,-0.867 0.574,-0.867 L 96.7,25.9 c 0.507,-0.027 0.76,0.173 0.92,0.627 l 2.428,6.485 c 0.053,0.16 0.12,0.307 0.227,0.56 l 0.774,-2.122 1.868,-5.017 c 0.133,-0.36 0.334,-0.547 0.747,-0.534 l 2.028,0.013 c 0.173,0 0.36,0.067 0.534,0.093 v 0.374 z m -56.107,0.655 3.27,-1.214 c 1.16,-0.334 2.335,-0.16 3.43,0.307 1.24,0.534 1.88,1.534 2.055,2.855 0.053,0.387 0.067,0.774 0.067,1.147 v 16.826 c 0,0.787 0,0.787 -0.8,0.787 h -1.935 c -0.56,0 -0.627,-0.067 -0.627,-0.64 V 30.98 c 0,-1.56 -0.774,-2.375 -2.348,-2.482 -1.014,-0.067 -1.948,0.2 -2.855,0.64 -0.307,0.147 -0.267,0.374 -0.267,0.614 v 17.2 c 0,0.814 0,0.814 -0.814,0.814 -0.694,0 -1.388,-0.013 -2.082,0 -0.307,0 -0.467,-0.12 -0.454,-0.44 V 26.67 c 0,-0.72 0,-0.72 0.72,-0.72 l 2.082,-0.013 c 0.427,-0.013 0.6,0.133 0.547,0.56 l 0.013,0.547 z"
       id="path3" />
  </g>
</svg>
