<?xml version="1.0" standalone="no"?><!DOCTYPE svg PUBLIC "-//W3C//DTD SVG 1.1//EN" "http://www.w3.org/Graphics/SVG/1.1/DTD/svg11.dtd"><svg t="1687178626238" class="icon" viewBox="0 0 1024 1024" version="1.1" xmlns="http://www.w3.org/2000/svg" p-id="4207" xmlns:xlink="http://www.w3.org/1999/xlink" width="200" height="200"><path d="M931.314 858.548l-0.032-547.662 0.031-1.961c0.069-5.214 0.18-16.791-6.55-23.632-2.941-2.969-8.164-9.353-16.451-9.353H613.097l122.489-174.069c7.306-10.536 4.668-23.583-5.878-30.881-10.541-7.295-25.01-6.803-32.308 3.741l-140.777 201.21h-46.897c-1.327 0-2.757 0.626-4.383-0.236L257.162 145.053c-11.312-6.019-25.374-1.017-31.406 10.306-6.023 11.321-1.734 22.885 9.597 28.914l176.92 91.667H124.264c-15.969 0-31.593 18.715-31.593 34.718v545.707c0 16.002 15.625 30.833 31.593 30.833h61.479c3.053 16.166 13.506 40.374 22.83 50.064 12.982 13.506 30.132 20.661 45.859 20.661h0.035c17.992 0 36.987-8.015 50.818-22.833 8.916-9.542 19.096-31.725 22.722-47.892h368.611c3.045 16.166 13.506 40.374 22.821 50.064 12.991 13.506 30.141 20.661 45.859 20.661h0.062c17.973 0 36.96-8.015 50.792-22.833 8.914-9.542 19.096-31.725 22.729-47.892h69.432c8.286 0 13.509-4.439 16.451-7.41 6.73-6.835 6.619-16.016 6.55-21.24z m-651.489 51.089c-8.677 9.282-18.782 9.895-25.35 9.895h-0.009c-4.966 0-13.584-0.803-20.788-8.288-4.943-5.134-10.423-17.982-12.83-24.043h71.602c-2.843 6.062-8.008 17.493-12.625 22.436z m510.875-0.002c-8.677 9.283-18.783 9.896-25.34 9.896h-0.027c-4.966 0-13.576-0.803-20.792-8.289-4.932-5.134-10.411-17.981-12.808-24.043h71.59c-2.841 6.063-8.013 17.494-12.623 22.436z m103.176-59.818h-67.447c-1.132 0-2.315-0.359-3.513-0.359-1.227 0-2.424 0.359-3.583 0.359H716.249c-0.826 0-1.632-0.317-2.483-0.349-1.395-0.041-2.741 0.349-4.033 0.349H125.002V313.324h768.873v536.493h0.001z" fill="#D81E06" p-id="4208"></path><path d="M837.595 401.868c0.902-3.673 3.509-13.054-2.539-20.73-3.743-4.784-8.851-8.204-15.305-8.204h-608.25c-11.596 0-31.94 10.126-31.94 29.194v371.638c0 22.404 21.187 27.555 31.94 27.555h608.25c6.014 0 11.627-1.191 15.344-5.699 6.388-7.749 2.531-16.312 1.552-21.276-0.111-0.65-2.379-0.77-2.383-0.77v0.095-0.095l2.002-370.442 1.329-1.266z m-40.713 361.059H223.037l0.049-357.662h573.796v357.662z" fill="#D81E06" p-id="4209"></path><path d="M386.78 495.239l-116.833 55.875c-8.682 4.152-12.342 14.548-8.2 23.221 2.987 6.257 9.23 9.914 15.718 9.914 2.52 0 5.081-0.554 7.505-1.715l116.83-55.873c8.686-4.154 12.352-14.55 8.2-23.225-4.157-8.681-14.561-12.38-23.22-8.197z m364.926 66.163l-129.164-79.094c-8.183-5.019-18.92-2.454-23.955 5.76-5.019 8.199-2.45 18.922 5.769 23.944l129.166 79.1a17.34 17.34 0 0 0 9.066 2.562c5.878 0 11.595-2.953 14.885-8.322 5.018-8.204 2.441-18.926-5.767-23.95z m-121.628 55.492c-9.63 0-17.414 7.796-17.414 17.413 0 27.123-17.429 57.328-42.42 57.328-17.924 0-34.062-22.457-39.992-42.523-1.546-5.245-2.44-10.33-2.44-14.805 0-9.003-6.856-16.324-15.618-17.234-8.779 0.91-15.636 8.232-15.636 17.234 0 5.22-0.664 10.532-1.871 15.736-5.123 21.876-20.366 41.594-40.552 41.594-22.603 0-42.423-35.727-42.423-57.328 0-9.617-7.801-17.413-17.422-17.413-9.611 0-17.413 7.796-17.413 17.413 0 36.691 30.811 92.16 77.258 92.16 25.604 0 45.91-13.835 59.292-33.457 13.549 18.999 33.132 33.457 56.816 33.457 47.712 0 77.255-47.836 77.255-92.16 0.001-9.617-7.792-17.415-17.42-17.415z" fill="#D81E06" p-id="4210"></path></svg>