<?xml version="1.0" standalone="no"?><!DOCTYPE svg PUBLIC "-//W3C//DTD SVG 1.1//EN" "http://www.w3.org/Graphics/SVG/1.1/DTD/svg11.dtd"><svg t="1687203272782" class="icon" viewBox="0 0 1024 1024" version="1.1" xmlns="http://www.w3.org/2000/svg" p-id="1545" xmlns:xlink="http://www.w3.org/1999/xlink" width="200" height="200"><path d="M105.472 485.376c-3.072 14.848-5.632 37.888-1.024 64.512s14.336 45.568 26.624 69.12c19.456 36.864 39.424 62.976 48.64 74.24 27.648 34.816 57.344 71.68 109.568 102.4 60.416 35.84 117.76 43.52 144.384 45.568 12.8 1.024 71.68 4.608 142.336-19.968 29.696-10.24 52.736-22.528 69.12-32.768-28.672 11.776-111.616 41.984-211.456 15.36-24.576-6.656-97.28-26.624-155.136-93.696-47.104-54.784-61.44-114.688-67.584-139.776-5.632-26.112-7.68-48.128-8.192-64.512-3.072-21.504-17.92-38.912-37.888-44.544-22.528-5.632-46.592 3.584-59.392 24.064z" fill="#FF3B4A" p-id="1546"></path><path d="M702.976 872.448c-27.136 14.336-67.584 31.744-118.272 40.96-33.28 6.144-92.672 12.288-163.84-3.584-17.408-4.096-65.024-15.872-118.784-47.616-67.072-38.912-105.472-86.016-115.2-98.304-46.592-58.368-64.512-115.2-70.144-136.192-9.216-33.28-12.288-61.952-13.312-82.944 9.216 30.72 27.648 80.384 65.536 131.072 22.016 29.696 90.624 118.272 210.944 145.92 67.072 15.872 123.904 6.144 158.208 0 54.272-9.728 97.28-27.648 125.44-41.984 13.824 31.232 26.624 61.952 39.424 92.672z" fill="#AF27CC" p-id="1547"></path><path d="M688.128 138.752c35.84 16.896 95.744 51.2 147.456 114.176 18.944 23.04 31.232 44.032 33.792 48.128 4.608 7.68 26.624 46.08 40.448 103.936 18.432 76.288 11.776 137.728 10.24 151.552-2.56 22.528-10.752 75.264-40.96 135.168-11.776 23.04-23.552 41.472-33.28 54.784 11.776-31.232 25.6-77.312 29.696-134.656 2.56-32.768 5.632-85.504-12.8-150.016-7.68-25.6-23.552-78.336-67.584-130.56-55.296-65.024-122.88-91.648-156.16-101.888-1.024-4.608-8.704-33.28 9.216-60.416 13.824-20.992 34.304-28.16 39.936-30.208z" fill="#65CEE7" p-id="1548"></path><path d="M920.064 918.528c-25.088-55.808-50.688-111.104-75.776-166.912 2.56-6.656 6.144-15.872 9.728-27.136 6.656-20.992 23.552-76.8 24.064-151.552 0-47.104 0.512-93.184-20.992-148.992-12.288-31.744-40.448-89.6-101.376-136.704-38.4-29.696-75.776-44.544-100.352-51.712 87.04 56.32 137.728 133.12 153.6 192.512 16.896 62.976 7.68 126.464 7.68 126.464-1.024 8.192-2.56 14.336-3.072 18.432-13.312 62.464-43.52 103.936-56.32 121.344s-25.6 30.72-34.816 39.936c27.136 62.976 54.272 126.464 81.408 189.44 37.888-1.536 77.312-3.072 116.224-5.12z" fill="#4BA2EA" p-id="1549"></path><path d="M686.08 138.24c-18.944-11.264-50.176-26.112-90.624-29.184-25.088-2.048-42.496 1.536-72.704 7.168-38.912 7.68-83.968 16.896-137.216 45.056-27.136 14.336-59.392 31.744-92.672 66.56-12.288 12.8-41.984 45.568-62.976 96.768-11.264 27.648-15.872 49.664-19.968 68.608-12.8 62.464-10.24 117.248-6.144 117.76 4.608 0.512-2.56-84.48 48.64-165.376 7.168-11.264 26.624-39.936 60.928-67.584 54.272-43.52 109.568-54.784 143.36-61.44 57.344-11.264 101.376-5.632 111.616-4.608 34.304 4.608 61.952 13.824 81.408 22.016 4.608-1.536 26.624-9.728 37.888-33.28 15.36-30.72 0-59.904-1.536-62.464z" fill="#87C966" p-id="1550"></path><path d="M102.4 515.072c-1.536-38.912 1.536-107.008 36.352-180.736C171.52 265.728 216.064 224.768 240.64 203.264c48.128-43.008 92.672-64 103.936-69.632 24.064-11.264 74.752-34.304 144.896-36.864 47.616-2.048 86.528 6.144 112.64 13.824-18.432-0.512-40.448 0-66.048 3.584-14.336 2.048-44.032 7.168-84.992 21.504-50.688 17.92-96.768 34.304-142.848 76.8-13.824 12.8-60.416 57.856-85.504 131.072-13.312 38.912-16.384 74.24-18.432 95.744-3.072 33.28-1.536 61.44 0 81.92-14.336 19.968-37.888 30.208-60.928 26.112-27.136-5.632-39.424-29.184-40.96-32.256z" fill="#FCDC18" p-id="1551"></path></svg>