<?xml version="1.0" standalone="no"?><!DOCTYPE svg PUBLIC "-//W3C//DTD SVG 1.1//EN" "http://www.w3.org/Graphics/SVG/1.1/DTD/svg11.dtd"><svg t="1687189120104" class="icon" viewBox="0 0 1024 1024" version="1.1" xmlns="http://www.w3.org/2000/svg" p-id="3346" xmlns:xlink="http://www.w3.org/1999/xlink" width="200" height="200"><path d="M512 512m-512 0a512 512 0 1 0 1024 0 512 512 0 1 0-1024 0Z" fill="#FD2442" p-id="3347"></path><path d="M428.8 767.6928c4.4032-9.2672 8.0896-17.2544 12.032-25.1392a505.0368 505.0368 0 0 0 24.4224-49.8688 30.72 30.72 0 0 1 36.608-22.016c23.0912 1.5872 46.336 0.3584 70.4 0.3584v-289.9456c-16.2304 0-32.2048-0.5632-48.128 0-11.0592 0.5632-14.9504-2.9184-14.6432-14.3872 0.768-27.4432 0-54.9888 0-83.712h225.28v66.56c0 31.3344 0 31.3344-31.488 31.3344h-31.6416v289.9456h68.352c27.5456 0 27.5456 0 27.5456 27.904v58.4704c0 8.0896-2.0992 12.1856-11.1616 12.1856q-160.4096-0.3072-320.8192-0.256a51.2 51.2 0 0 1-6.7584-1.4336z" fill="#FFFFFF" p-id="3348"></path><path d="M471.4496 557.6704c-14.08 28.0064-26.4704 52.992-39.424 77.6192a12.3904 12.3904 0 0 1-9.472 4.5568c-31.3344 0-62.8224 1.1776-94.0544-1.0752s-43.776-21.6064-31.3344-51.2c14.2336-34.1504 31.2832-67.1232 47.0528-100.608 0.9728-2.0992 1.7408-4.2496 3.6352-8.96-12.6464 0-23.7568 0.3072-34.816 0a133.888 133.888 0 0 1-26.88-2.3552 30.72 30.72 0 0 1-24.0128-44.2368c18.9952-43.9808 40.2432-87.04 60.7744-130.304 6.7072-14.1824 13.6704-28.2112 21.1968-41.984 1.9456-3.584 6.4-8.1408 9.8304-8.2432 29.3376-0.6656 58.6752-0.3584 90.6752-0.3584-2.7648 6.8608-4.352 11.5712-6.5024 15.9744q-26.9312 54.272-54.016 108.4416c-3.6352 7.3216-8.0384 14.9504 5.5808 20.48 3.6352-18.7904 18.2784-15.36 31.1296-15.36h74.0352c-3.1232 7.1168-5.12 12.0832-7.424 16.8448-22.8352 46.08-46.08 91.8016-68.608 137.7792-9.2672 18.7392-6.144 23.296 15.36 23.5008 11.264-0.4096 22.4768-0.512 37.2736-0.512z" fill="#FFFFFF" p-id="3349"></path><path d="M431.1552 671.0784c-17.3568 33.5872-32.8704 63.7952-48.7424 93.7984a10.5984 10.5984 0 0 1-8.0384 4.352q-63.8976-0.768-128-2.304a87.7568 87.7568 0 0 1-17.1008-4.352l23.8592-46.4896c7.7824-15.36 15.36-30.72 23.7056-45.312a14.2336 14.2336 0 0 1 10.24-6.5024c39.1168 1.8944 78.2336 4.5056 117.3504 6.8096 7.8848 0.3584 15.3088 0 26.7264 0z" fill="#FFFFFF" p-id="3350"></path></svg>