<?xml version="1.0" standalone="no"?><!DOCTYPE svg PUBLIC "-//W3C//DTD SVG 1.1//EN" "http://www.w3.org/Graphics/SVG/1.1/DTD/svg11.dtd"><svg t="1687203697834" class="icon" viewBox="0 0 1024 1024" version="1.1" xmlns="http://www.w3.org/2000/svg" p-id="5522" xmlns:xlink="http://www.w3.org/1999/xlink" width="200" height="200"><path d="M64 888.8a464 71.2 0 1 0 928 0 464 71.2 0 1 0-928 0Z" fill="#DAE9FF" p-id="5523"></path><path d="M780 450.4A319.28 319.28 0 0 1 464 766.4c-174.4 2.4-313.6-145.6-316-316-2.4-174.4 145.6-313.6 316-316 174.4-2.4 313.6 145.6 316 316 0.8 61.6 96.8 61.6 96 0-2.4-185.6-124-345.6-302.4-397.6C395.2 0.8 203.2 85.6 108 242.4c-96.8 159.2-63.2 368 64.8 499.2 129.6 133.6 340 154.4 499.2 64.8 127.2-72 201.6-212 204-356 1.6-61.6-94.4-61.6-96 0z" fill="#459DF5" p-id="5524"></path><path d="M601.6 350.4c29.6 38.4 44 84 45.6 132 0.8 46.4 72.8 46.4 72 0-1.6-68.8-24-129.6-66.4-183.2-28.8-36.8-79.2 14.4-51.2 51.2zM540 292c46.4 0 46.4-72 0-72s-46.4 72 0 72z" fill="#92C3F4" p-id="5525"></path><path d="M636.8 784c29.6 36 59.2 71.2 88.8 107.2 16.8 20 50.4 16.8 68 0 20-20 16.8-48 0-68-29.6-36-59.2-71.2-88.8-107.2-16.8-20-50.4-16.8-68 0-19.2 20-16 48 0 68z" fill="#459DF5" p-id="5526"></path></svg>