<?xml version="1.0" standalone="no"?><!DOCTYPE svg PUBLIC "-//W3C//DTD SVG 1.1//EN" "http://www.w3.org/Graphics/SVG/1.1/DTD/svg11.dtd"><svg t="1687256976885" class="icon" viewBox="0 0 1136 1024" version="1.1" xmlns="http://www.w3.org/2000/svg" p-id="11046" xmlns:xlink="http://www.w3.org/1999/xlink" width="221.875" height="200"><path d="M852.676923 124.652308H248.123077c-26.387692 0-48.049231 21.661538-48.049231 48.04923v678.596924c0 26.387692 21.661538 48.049231 48.049231 48.04923h344.812308c19.298462-142.769231 116.381538-173.883077 116.381538-173.883077s-79.163077-87.236923 6.104615-175.458461 185.501538-24.615385 185.501539-24.615385V172.701538c0-26.387692-21.661538-48.049231-48.246154-48.04923z" fill="#FFC0A9" p-id="11047"></path><path d="M607.113846 915.495385H248.32c-35.446154 0-64.196923-28.750769-64.196923-64.196923V172.701538c0-35.446154 28.750769-64.196923 64.196923-64.196923h604.553846c35.446154 0 64.196923 28.750769 64.196923 64.196923v382.03077l-24.615384-15.556923c-3.544615-2.363077-90.584615-55.335385-165.415385 22.252307-73.846154 76.603077-8.467692 150.449231-5.710769 153.403077l16.738461 18.510769-23.630769 7.68c-3.544615 1.181538-87.827692 30.72-105.353846 160.689231l-1.969231 13.784616zM248.32 140.603077c-17.723077 0-32.098462 14.375385-32.098462 32.098461v678.596924c0 17.723077 14.375385 32.098462 32.098462 32.098461h331.027692c17.92-102.203077 74.633846-146.904615 105.353846-164.036923-26.387692-40.566154-45.883077-113.033846 19.298462-180.381538 66.756923-69.12 142.769231-53.366154 180.972308-38.596924V172.701538c0-17.723077-14.375385-32.098462-32.098462-32.098461h-604.553846z" fill="#493B4E" p-id="11048"></path><path d="M744.566154 290.461538H361.550769c-36.036923 0-36.233846 56.123077 0 56.123077h383.015385c36.036923 0.196923 36.036923-56.123077 0-56.123077zM587.224615 480.098462H363.52c-36.036923 0-36.233846 56.123077 0 56.123076h223.507692c36.233846 0 36.233846-56.123077 0.196923-56.123076zM517.710769 669.538462h-160.295384c-36.036923 0-36.233846 56.123077 0 56.123076h160.295384c36.233846 0 36.233846-56.123077 0-56.123076z" fill="#493B4E" p-id="11049"></path><path d="M782.966154 729.6s-76.603077-27.175385-55.335385-117.563077c1.181538-5.12 3.347692-10.043077 6.301539-14.375385 14.769231-21.858462 66.953846-83.889231 153.206154-28.356923 2.363077 1.575385 4.529231 3.150769 6.498461 5.12 13.193846 12.603077 55.926154 61.243077 11.224615 123.076923 0 0-11.421538 18.707692-40.172307 28.16 0 0-16.344615 10.24 26.584615 17.132308 5.12 0.787692 10.043077 2.363077 14.572308 4.923077 21.464615 11.815385 80.935385 49.624615 89.206154 113.033846l0.787692 4.726154c3.741538 23.236923-11.421538 45.292308-34.461538 50.018462-33.870769 6.892308-84.283077 14.178462-136.073847 11.224615-52.775385-2.953846-103.975385-9.846154-137.64923-14.769231-25.009231-3.741538-41.944615-27.963077-36.233847-52.578461 5.513846-24.221538 19.101538-55.138462 50.412308-85.07077 0.787692-0.787692 1.772308-1.575385 2.756923-2.363076 7.286154-5.907692 39.384615-31.507692 67.544616-37.809231 3.544615-1.181538 7.286154-2.56 10.830769-4.529231z" fill="#FFC0A9" p-id="11050"></path><path d="M848.935385 943.261538c-8.270769 0-16.541538-0.196923-24.812308-0.787692-53.169231-2.953846-104.96-9.846154-139.027692-14.966154-16.541538-2.56-31.310769-11.815385-40.566154-25.6-9.255385-13.587692-12.406154-30.523077-8.861539-46.473846 7.876923-34.461538 26.387692-65.772308 54.941539-92.947692 1.181538-1.181538 2.363077-2.166154 3.544615-3.150769 7.286154-5.907692 28.553846-22.646154 51.987692-33.28-25.403077-21.464615-47.852308-59.864615-34.067692-117.76 1.772308-7.089231 4.529231-13.784615 8.664616-19.692308 33.28-49.033846 96.689231-83.298462 175.064615-32.689231 3.150769 1.969231 6.104615 4.332308 8.861538 7.089231 33.28 32.098462 54.153846 86.646154 13.39077 143.556923-1.772308 2.756923-8.467692 12.012308-21.07077 20.873846 5.907692 1.181538 11.421538 3.347692 16.541539 6.104616 26.190769 14.375385 88.221538 55.138462 97.476923 124.84923l0.787692 4.332308c5.316923 31.901538-15.556923 61.833846-47.261538 68.332308-29.341538 5.907692-71.089231 12.209231-115.593846 12.20923z m-29.538462-380.455384c-35.643077 0-59.273846 24.812308-72.270769 43.913846-1.772308 2.756923-3.150769 5.710769-3.938462 9.058462-17.723077 75.421538 42.535385 97.870769 45.095385 98.855384 12.996923 4.529231 14.572308 22.449231 2.363077 29.144616-4.726154 2.756923-10.043077 4.726154-15.556923 5.907692-19.101538 4.529231-44.701538 21.464615-60.849231 34.658461-0.590769 0.590769-1.181538 1.181538-1.772308 1.575385-23.827692 22.646154-39.187692 48.64-45.686154 76.8-1.969231 8.664615 0.393846 17.526154 6.498462 24.418462 4.529231 4.923077 10.633846 7.876923 17.329231 8.861538 33.476923 5.12 83.889231 11.618462 135.286154 14.572308 50.215385 2.953846 99.446154-4.332308 131.938461-11.027693 14.572308-2.953846 24.221538-16.935385 21.858462-31.704615l-0.787693-5.316923c-7.286154-56.713846-63.803077-91.569231-80.935384-101.021539-2.756923-1.575385-5.907692-2.56-9.255385-3.150769-20.283077-3.150769-39.384615-8.270769-42.732308-24.221538-2.166154-10.24 4.135385-18.510769 10.24-22.252308l1.772308-0.984615 1.969231-0.59077c22.055385-7.286154 31.113846-20.676923 31.507692-21.267692l0.590769-0.787692c35.84-49.624615 5.513846-88.024615-9.255384-102.203077-1.181538-1.181538-2.56-2.363077-3.938462-3.150769-23.04-14.572308-42.535385-20.086154-59.470769-20.086154z" fill="#493B4E" p-id="11051"></path></svg>