<?xml version="1.0" standalone="no"?><!DOCTYPE svg PUBLIC "-//W3C//DTD SVG 1.1//EN" "http://www.w3.org/Graphics/SVG/1.1/DTD/svg11.dtd"><svg t="1687256921283" class="icon" viewBox="0 0 1024 1024" version="1.1" xmlns="http://www.w3.org/2000/svg" p-id="6274" xmlns:xlink="http://www.w3.org/1999/xlink" width="200" height="200"><path d="M535.5008 286.6176L395.264 318.5664v551.936h259.584V317.3376l-119.3472-30.72z" fill="#FF00FF" p-id="6275"></path><path d="M192.6144 499.6096h173.1072v370.8928H192.6144zM684.3904 498.5344h143.4624v371.968h-143.4624zM684.3904 417.6384h166.7072a20.48 20.48 0 0 1 20.48 20.48v10.24a20.48 20.48 0 0 1-20.48 20.48h-166.7072v-51.2zM173.4656 417.6384h192.256v51.2H173.4656a20.992 20.992 0 0 1-20.992-20.992v-9.216a20.992 20.992 0 0 1 20.992-20.992z" fill="#F29BF9" p-id="6276"></path><path d="M631.552 153.6l-76.8-28.2624a24.576 24.576 0 0 0-23.0912 3.2768 26.6752 26.6752 0 0 0-10.752 21.4528v108.5952l14.9504-3.5328 14.592 3.7888v-26.624a24.1152 24.1152 0 0 0 4.3008-1.1264l76.8-28.2624a26.624 26.624 0 0 0 0-49.5104z m-81.1008 46.848v-44.3904l60.0576 22.0672z" fill="#271028" p-id="6277"></path><path d="M775.8336 316.9792l-225.28-58.0608-14.6432-3.7376-14.8992 3.4816-225.28 53.0944a15.36 15.36 0 0 0-11.1104 18.3296 14.7456 14.7456 0 0 0 17.664 11.52l68.1472-16.0768 29.5936-6.9632L535.5008 286.72l124.1088 32 29.5424 7.5776 79.5648 20.48a14.6432 14.6432 0 0 0 3.584 0.4608 14.9504 14.9504 0 0 0 14.336-11.6224 15.36 15.36 0 0 0-10.8032-18.6368z" fill="#271028" p-id="6278"></path><path d="M173.2608 417.6384h192.4608v-30.72H173.2608A51.2 51.2 0 0 0 122.88 439.1936v8.2432a51.8144 51.8144 0 0 0 40.192 51.2 47.7696 47.7696 0 0 0 10.24 1.0752h192.4096v-30.72H173.2608a21.248 21.248 0 0 1-20.8384-21.5552v-8.2432a21.248 21.248 0 0 1 20.8384-21.5552zM850.7392 387.0208h-166.3488v30.72h166.3488a21.248 21.248 0 0 1 20.8384 21.5552v8.2432a21.248 21.248 0 0 1-20.8384 21.5552h-166.3488v30.72h166.3488a48.0768 48.0768 0 0 0 6.7072-0.512A51.6608 51.6608 0 0 0 901.12 447.4368v-8.2432a51.2 51.2 0 0 0-50.3808-52.1728zM365.7216 325.5296v544.9728h29.5424V318.5664l-29.5424 6.9632z" fill="#271028" p-id="6279"></path><path d="M654.848 317.3376V870.5024h29.5424V324.9664l-29.5424-7.6288zM523.3152 673.1264A74.0352 74.0352 0 0 0 450.56 748.3392V870.4h29.696v-122.0608a43.1104 43.1104 0 1 1 86.1184 0V870.4h29.5936v-122.0608a74.0864 74.0864 0 0 0-72.6528-75.2128z" fill="#271028" p-id="6280"></path><path d="M850.7392 499.6096h-22.8864v366.6944a4.096 4.096 0 0 1-4.0448 4.1984H196.6592a4.1472 4.1472 0 0 1-4.0448-4.1984V499.6096h-19.3536a47.7696 47.7696 0 0 1-10.24-1.0752v367.7696a34.304 34.304 0 0 0 33.5872 34.816h627.2a34.304 34.304 0 0 0 33.6384-34.816V499.0976a48.0768 48.0768 0 0 1-6.7072 0.512z" fill="#271028" p-id="6281"></path><path d="M274.4832 546.6112a15.0528 15.0528 0 0 0-14.7968 15.36v74.2912a14.7968 14.7968 0 1 0 29.5424 0v-74.3424a15.0528 15.0528 0 0 0-14.7456-15.3088zM762.5728 651.52a15.36 15.36 0 0 0 14.7968-15.36v-74.24a14.7968 14.7968 0 1 0-29.5936 0v74.2912a15.36 15.36 0 0 0 14.7968 15.3088zM274.4832 700.2624a15.0528 15.0528 0 0 0-14.7968 15.36v74.2912a14.7968 14.7968 0 1 0 29.5424 0v-74.3424a15.0528 15.0528 0 0 0-14.7456-15.3088zM762.5728 805.1712a15.36 15.36 0 0 0 14.7968-15.36v-74.24a14.7968 14.7968 0 1 0-29.5936 0v74.2912a15.36 15.36 0 0 0 14.7968 15.3088z" fill="#271028" p-id="6282"></path></svg>