<?xml version="1.0" standalone="no"?><!DOCTYPE svg PUBLIC "-//W3C//DTD SVG 1.1//EN" "http://www.w3.org/Graphics/SVG/1.1/DTD/svg11.dtd"><svg t="1687256779264" class="icon" viewBox="0 0 1024 1024" version="1.1" xmlns="http://www.w3.org/2000/svg" p-id="5031" xmlns:xlink="http://www.w3.org/1999/xlink" width="200" height="200"><path d="M164.61 912c-28.94 0-52.61-23.68-52.61-52.61V164.61c0-28.94 23.68-52.61 52.61-52.61h694.78c28.94 0 52.61 23.68 52.61 52.61L164.61 912z" fill="#187AF9" p-id="5032"></path><path d="M560.23 560.23m-351.77 0a351.77 351.77 0 1 0 703.54 0 351.77 351.77 0 1 0-703.54 0Z" fill="#D0E4FF" p-id="5033"></path><path d="M789.07951955 744.11934237c0-16.74959919-9.18259147-30.77894195-22.30057928-39.2158794 9.3897176 18.82086042 15.02354815 39.60251481 15.81062741 61.77881844 3.76969545-6.80754527 6.48995186-14.23646889 6.48995187-22.56293904zM570.5476509 578.59795289c67.08124719 0 121.44495038-53.28664736 121.44495038-119.01467054 0-65.74183158-54.32227798-119.02847895-121.44495038-119.02847895-67.05363037 0-121.44495038 53.28664736-121.44495039 119.02847895 0 65.72802318 54.40512843 119.01467054 121.44495039 119.01467054z" fill="#187AF9" p-id="5034"></path><path d="M643.92 680.1c0 18.98 15.39 34.37 34.37 34.37 12.95 0 23.82-7.45 29.68-18.04-0.57-16.05-4.66-31.11-11.45-44.74-5.36-3.45-11.37-5.97-18.22-5.97-19 0.01-34.38 15.4-34.38 34.38z" fill="#F4F4F4" p-id="5035"></path><path d="M657.4577723 744.10553395c0-43.77265408 33.76155813-79.45358096 76.5261984-83.37516889-28.11391915-26.13931678-65.87991567-42.41943008-107.69177577-42.41943009h-101.24324915c-86.67537846 0-156.93255954 68.82110663-156.93255954 153.72900883v9.91443711c0 34.70052988 70.24337266 34.70052988 156.93255954 34.70052987h101.24324915c25.72506453 0 49.62741918-0.23474293 71.05806874-1.25656515-23.84712101-14.88546407-39.89249138-41.16286493-39.89249137-71.29281168z" fill="#187AF9" p-id="5036"></path><path d="M741.62002046 744.11934237m-47.45949907 0a47.45949908 47.45949908 0 1 0 94.91899816 0 47.45949908 47.45949908 0 1 0-94.91899816 0Z" fill="#187AF9" p-id="5037"></path></svg>